<svg xmlns="http://www.w3.org/2000/svg" width="150.133" height="65.129" viewBox="0 0 150.133 65.129">
  <g id="Group_505" data-name="Group 505" transform="translate(22189 -3608.807)">
    <path id="Path_1185" data-name="Path 1185" d="M4.061-20.708l-2.635-.4v-1.922h9.92v1.922l-2.728.4V-2.17l2.728.341V0H1.426V-1.86l2.635-.31Zm12.369,0-2.449-.4v-1.922h7.037l9.238,13.95,1.736,3.534V-20.708l-2.666-.4v-1.922h7.688v1.922l-2.387.4V0H30.876L21.235-14.663l-2.17-4.092V-2.17l3.131.31V0H13.981V-1.86l2.449-.31Zm24.862,0-2.542-.4v-1.922H55.862l.31,5.611h-2.48l-1.147-3.41-6.7-.341V-12.4l4.619-.093.589-2.728h1.984v7.874H51.088l-.62-2.79-4.619-.124V-2.17l4.743.31V0H38.9V-1.86l2.387-.31Zm19.685,0-2.635-.4v-1.922h9.92v1.922l-2.728.4V-2.17l2.728.341V0h-9.92V-1.86l2.635-.31Zm12.369,0-2.449-.4v-1.922h7.037l9.238,13.95,1.736,3.534V-20.708l-2.666-.4v-1.922H93.93v1.922l-2.387.4V0H87.792L78.151-14.663l-2.17-4.092V-2.17l3.131.31V0H70.9V-1.86l2.449-.31Zm25.265,0-2.635-.4v-1.922h9.92v1.922l-2.728.4V-2.17l2.728.341V0h-9.92V-1.86l2.635-.31Zm17.422-.279-4.433.155-1.209,6.758h-2.6l.527-8.959h20l.372,8.959h-2.449l-1.209-6.758-4.371-.155V-2.17l4.34.31V0H112.065V-1.86l3.968-.31ZM137.268-9.145l-6.634-11.563-1.767-.4v-1.922h9.114v1.922l-2.2.4,3.875,7.6.868,2.139.9-2.139,3.565-7.6-2.418-.4v-1.922h7.564v1.922l-1.922.372L142.042-9.176V-2.17l3.379.31V0H133.982V-1.86l3.286-.31Z" transform="translate(-22189 3654)" fill="#da3f42"/>
    <path id="Path_1183" data-name="Path 1183" d="M-22350.02,3627.31l31.578-17.5h86.086l32.336,17.5h-86.6l-31.826-14.66Z" transform="translate(161.02 -1)" fill="#da3f42"/>
    <rect id="Rectangle_1646" data-name="Rectangle 1646" width="150" height="3" transform="translate(-22189 3659)" fill="#da3f42"/>
    <path id="Path_1184" data-name="Path 1184" d="M-51.624.088A2.634,2.634,0,0,1-53.7-.724a3.227,3.227,0,0,1-.72-2.22,3.313,3.313,0,0,1,.38-1.62A2.683,2.683,0,0,1-53-5.632a3,3,0,0,1,1.5-.376,5.112,5.112,0,0,1,.68.044q.328.044.776.116.336.056.368.056l-.088,1.648H-50.5l-.248-1.144a.671.671,0,0,0-.3-.144,2.254,2.254,0,0,0-.552-.056,1.254,1.254,0,0,0-1.092.628A3.325,3.325,0,0,0-53.1-3.04a3.951,3.951,0,0,0,.392,1.88,1.239,1.239,0,0,0,1.144.728A1.772,1.772,0,0,0-51.012-.5a.914.914,0,0,0,.332-.2l.352-.824.672.064-.16,1.24a2.017,2.017,0,0,0-.332.06q-.164.044-.2.052-.32.088-.6.14A3.725,3.725,0,0,1-51.624.088Zm2.5-1.336a1.174,1.174,0,0,1,.732-1.1A4.283,4.283,0,0,1-46.5-2.72V-2.9a1.53,1.53,0,0,0-.068-.512.493.493,0,0,0-.248-.276,1.183,1.183,0,0,0-.524-.092,2.3,2.3,0,0,0-.7.1,5.215,5.215,0,0,0-.648.26l-.248-.512a2.117,2.117,0,0,1,.4-.248,3.637,3.637,0,0,1,.676-.252,3.028,3.028,0,0,1,.808-.108,2.358,2.358,0,0,1,.964.16.968.968,0,0,1,.5.512,2.423,2.423,0,0,1,.152.944V-.48H-45v.448a4.468,4.468,0,0,1-.456.08,3.942,3.942,0,0,1-.52.04.584.584,0,0,1-.364-.08.434.434,0,0,1-.092-.328V-.536a2.162,2.162,0,0,1-.56.432,1.565,1.565,0,0,1-.776.192,1.474,1.474,0,0,1-.676-.156,1.209,1.209,0,0,1-.492-.456A1.359,1.359,0,0,1-49.12-1.248Zm1.864.672a.933.933,0,0,0,.384-.1A1.5,1.5,0,0,0-46.5-.92V-2.232a1.917,1.917,0,0,0-1.076.244.734.734,0,0,0-.356.628.846.846,0,0,0,.18.584A.628.628,0,0,0-47.256-.576Zm2.752.1.528-.064V-3.688l-.512-.144v-.552l1.24-.168h.024l.2.16v.176l-.024.648h.024a1.322,1.322,0,0,1,.264-.4,2.027,2.027,0,0,1,.524-.416,1.359,1.359,0,0,1,.684-.18.866.866,0,0,1,.3.048v1.2a.993.993,0,0,0-.584-.168,1.689,1.689,0,0,0-1.016.312V-.544l.928.072V0H-44.5Zm8.192-1.9a2.748,2.748,0,0,1-.276,1.232,2.156,2.156,0,0,1-.808.892,2.346,2.346,0,0,1-1.268.332A2.066,2.066,0,0,1-39,.06a1.433,1.433,0,0,1-.276-.068l.024.664v.728l.744.1v.456H-40.88V1.48l.52-.1V-3.688l-.52-.144v-.552l1.32-.168h.016l.2.16v.448a1.74,1.74,0,0,1,.544-.432,1.569,1.569,0,0,1,.752-.184,1.607,1.607,0,0,1,1.248.54A2.4,2.4,0,0,1-36.312-2.368ZM-38.464-3.9a1.038,1.038,0,0,0-.456.1,1.015,1.015,0,0,0-.328.232V-.592a.439.439,0,0,0,.228.136,1.222,1.222,0,0,0,.38.056.955.955,0,0,0,.828-.452,2.567,2.567,0,0,0,.308-1.42,2.258,2.258,0,0,0-.264-1.22A.8.8,0,0,0-38.464-3.9Zm2.808,1.68a2.553,2.553,0,0,1,.3-1.28,1.99,1.99,0,0,1,.8-.8,2.3,2.3,0,0,1,1.1-.268,1.967,1.967,0,0,1,1.556.62,2.452,2.452,0,0,1,.548,1.684,2.593,2.593,0,0,1-.3,1.292,1.938,1.938,0,0,1-.8.792,2.348,2.348,0,0,1-1.1.26A1.97,1.97,0,0,1-35.1-.532,2.441,2.441,0,0,1-35.656-2.216Zm2.168,1.784q.9,0,.9-1.744A3.484,3.484,0,0,0-32.8-3.564a.729.729,0,0,0-.7-.476q-.928,0-.928,1.744A3.319,3.319,0,0,0-34.2-.908.751.751,0,0,0-33.488-.432Zm2.864-.04.528-.064V-3.688l-.512-.144v-.552l1.24-.168h.024l.2.16v.176l-.024.648h.024a1.322,1.322,0,0,1,.264-.4,2.027,2.027,0,0,1,.524-.416,1.359,1.359,0,0,1,.684-.18.866.866,0,0,1,.3.048v1.2a.993.993,0,0,0-.584-.168,1.689,1.689,0,0,0-1.016.312V-.544l.928.072V0h-2.584Zm5.112.544a1.037,1.037,0,0,1-.744-.232A.985.985,0,0,1-26.5-.9V-3.832h-.52v-.416l.232-.084q.168-.06.256-.1a.794.794,0,0,0,.232-.36q.072-.168.264-.832h.64l.032,1.176h1.224v.616h-1.216v2.248a5.633,5.633,0,0,0,.024.632.321.321,0,0,0,.1.236.545.545,0,0,0,.28.052,2.084,2.084,0,0,0,.416-.044,1.765,1.765,0,0,0,.36-.108l.152.448a2.226,2.226,0,0,1-.656.3A2.79,2.79,0,0,1-25.512.072ZM-22.7-.656a.6.6,0,0,0,.292.18,1.322,1.322,0,0,0,.46.084.868.868,0,0,0,.564-.156A.509.509,0,0,0-21.2-.96a.5.5,0,0,0-.232-.428,4.771,4.771,0,0,0-.784-.4l-.224-.1a2.109,2.109,0,0,1-.824-.56,1.284,1.284,0,0,1-.272-.848,1.036,1.036,0,0,1,.216-.644,1.412,1.412,0,0,1,.608-.444,2.378,2.378,0,0,1,.9-.16,3.713,3.713,0,0,1,.644.048q.268.048.564.128a1.162,1.162,0,0,0,.24.064v1.048h-.632l-.184-.608a.419.419,0,0,0-.216-.144,1.073,1.073,0,0,0-.384-.064.884.884,0,0,0-.524.14.45.45,0,0,0-.2.388.529.529,0,0,0,.136.372,1.026,1.026,0,0,0,.3.228q.16.08.592.264a6.207,6.207,0,0,1,.716.352,1.507,1.507,0,0,1,.472.436,1.107,1.107,0,0,1,.188.652,1.168,1.168,0,0,1-.464.96A2.109,2.109,0,0,1-21.9.088a3.387,3.387,0,0,1-.732-.072q-.324-.072-.748-.192l-.176-.056V-1.288h.664Zm4.28-.688a.613.613,0,0,1,.508.3,1.278,1.278,0,0,1,.212.756,2.814,2.814,0,0,1-.164.944,3.2,3.2,0,0,1-.408.8,1.5,1.5,0,0,1-.468.46h-.008l-.344-.232v-.12A1.34,1.34,0,0,0-18.76.984a2.442,2.442,0,0,0,.152-.808.383.383,0,0,0-.048-.2,1.012,1.012,0,0,0-.152-.184A1.289,1.289,0,0,1-19-.46a.677.677,0,0,1-.064-.324.523.523,0,0,1,.168-.408.608.608,0,0,1,.424-.152Zm4.24-4-.68-.1v-.5h2.56v.5l-.7.1V-.56l.7.088V0h-2.56V-.48l.68-.08Zm3.048,1.656-.512-.144v-.552l1.328-.168h.024l.2.16v.312l-.008.192a2.466,2.466,0,0,1,.728-.456,2.277,2.277,0,0,1,.9-.192,1.39,1.39,0,0,1,.764.18,1,1,0,0,1,.4.564,3.609,3.609,0,0,1,.12,1.04V-.544L-6.7-.48V0H-8.768V-.48l.432-.064V-2.752A2.963,2.963,0,0,0-8.392-3.4a.569.569,0,0,0-.2-.344.7.7,0,0,0-.42-.108,1.655,1.655,0,0,0-.976.392V-.552l.48.072V0H-11.6V-.48l.464-.072ZM-6.24-2.2a2.635,2.635,0,0,1,.276-1.224,2.012,2.012,0,0,1,.792-.836,2.352,2.352,0,0,1,1.2-.3,2.76,2.76,0,0,1,.552.048q.232.048.52.128l.232.064-.048,1.368h-.7l-.2-.88q-.048-.208-.472-.208a.79.79,0,0,0-.7.392,2.36,2.36,0,0,0-.26,1.224,2.479,2.479,0,0,0,.3,1.348.925.925,0,0,0,.808.468,2.035,2.035,0,0,0,1.12-.328l.184.416A1.957,1.957,0,0,1-3.26-.1a2.231,2.231,0,0,1-.924.192,1.871,1.871,0,0,1-1.54-.632A2.536,2.536,0,0,1-6.24-2.2ZM-1.232.072A.612.612,0,0,1-1.664-.1a.571.571,0,0,1-.184-.436.617.617,0,0,1,.212-.484.75.75,0,0,1,.516-.188.594.594,0,0,1,.456.18A.606.606,0,0,1-.5-.6a.622.622,0,0,1-.2.492A.774.774,0,0,1-1.232.072Z" transform="translate(-22039 3672)" fill="#42588f"/>
  </g>
</svg>
