<svg xmlns="http://www.w3.org/2000/svg" width="39.939" height="41.705" viewBox="0 0 39.939 41.705">
  <g id="Group_2143" data-name="Group 2143" transform="translate(-776.001 -2411)">
    <g id="Group_2142" data-name="Group 2142">
      <path id="Path_1209" data-name="Path 1209" d="M115.343,17.543v.025a4.317,4.317,0,0,0,2.464,4.119l.016.008a2.9,2.9,0,0,1,1.315,1.264l.007.012a4.511,4.511,0,0,0,4.24,2.366h.027a3.087,3.087,0,0,1,1.825.475,4.627,4.627,0,0,0,4.908,0,3.087,3.087,0,0,1,1.825-.475h.027a4.514,4.514,0,0,0,4.241-2.368l0-.008a2.908,2.908,0,0,1,1.319-1.267l.013-.007a4.317,4.317,0,0,0,2.464-4.119v-.024a2.762,2.762,0,0,1,.481-1.712,4.248,4.248,0,0,0,0-4.8,2.762,2.762,0,0,1-.481-1.711V9.292a4.317,4.317,0,0,0-2.465-4.119l-.015-.007a2.9,2.9,0,0,1-1.313-1.26l-.008-.016a4.514,4.514,0,0,0-4.239-2.366h-.027a3.085,3.085,0,0,1-1.824-.475h0a4.627,4.627,0,0,0-4.908,0,3.09,3.09,0,0,1-1.825.474h-.027a4.511,4.511,0,0,0-4.239,2.365l-.006.011a2.9,2.9,0,0,1-1.316,1.266l-.015.007a4.317,4.317,0,0,0-2.464,4.119v.024a2.761,2.761,0,0,1-.481,1.712,4.248,4.248,0,0,0,0,4.8A2.76,2.76,0,0,1,115.343,17.543Zm.745-5.669a4.258,4.258,0,0,0,.742-2.641V9.206a2.831,2.831,0,0,1,1.627-2.693l.013-.006A4.385,4.385,0,0,0,120.454,4.6l.007-.014A3.02,3.02,0,0,1,123.3,3.011h.026a4.563,4.563,0,0,0,2.7-.7,3.13,3.13,0,0,1,3.32,0,4.573,4.573,0,0,0,2.7.7h.026a3.015,3.015,0,0,1,2.84,1.568l.01.019a4.385,4.385,0,0,0,1.984,1.909l.012.006a2.832,2.832,0,0,1,1.628,2.694v.027a4.257,4.257,0,0,0,.742,2.641,2.75,2.75,0,0,1,0,3.112,4.262,4.262,0,0,0-.741,2.642v.025a2.833,2.833,0,0,1-1.628,2.695l-.011.005a4.39,4.39,0,0,0-1.988,1.915l-.005.011a3.018,3.018,0,0,1-2.842,1.571h-.026a4.571,4.571,0,0,0-2.7.7,3.13,3.13,0,0,1-3.319,0,4.564,4.564,0,0,0-2.447-.709q-.126,0-.253.007H123.3a3.016,3.016,0,0,1-2.843-1.572l-.008-.014a4.38,4.38,0,0,0-1.983-1.909l-.014-.007a2.831,2.831,0,0,1-1.628-2.694v-.027a4.261,4.261,0,0,0-.742-2.641,2.751,2.751,0,0,1,0-3.111Zm0,0" transform="translate(672.506 2410.654)" fill="#fecc01"/>
      <path id="Path_1210" data-name="Path 1210" d="M204.854,72.442a.745.745,0,0,0,1.026-.237L214.7,58.071a.745.745,0,1,0-1.264-.789l-8.822,14.133A.745.745,0,0,0,204.854,72.442Zm0,0" transform="translate(590.535 2359.341)" fill="#fecc01"/>
      <path id="Path_1211" data-name="Path 1211" d="M184.722,68.219a3.783,3.783,0,1,0-3.289-3.751A3.547,3.547,0,0,0,184.722,68.219Zm0-6.011a2.32,2.32,0,1,1-1.8,2.261A2.072,2.072,0,0,1,184.722,62.208Zm0,0" transform="translate(611.457 2355.901)" fill="#fecc01"/>
      <path id="Path_1212" data-name="Path 1212" d="M267.684,144.266a3.317,3.317,0,1,0,3.289-3.75A3.546,3.546,0,0,0,267.684,144.266Zm5.088,0a1.847,1.847,0,1,1-1.8-2.261A2.072,2.072,0,0,1,272.772,144.266Zm0,0" transform="translate(533.236 2283.533)" fill="#fecc01"/>
    </g>
    <g id="offer" transform="translate(776 2412.654)">
      <path id="Path_1208" data-name="Path 1208" d="M39.9,269.986a3.762,3.762,0,0,0-4.968-1.514L29.1,271.228a4.752,4.752,0,0,0-4.051-2.5l-5.385-.148a5.693,5.693,0,0,1-2.448-.632l-.548-.284a9.666,9.666,0,0,0-8.953.009l.034-1.241a.745.745,0,0,0-.724-.765l-5.905-.163a.744.744,0,0,0-.765.724L0,279.189a.745.745,0,0,0,.724.765l5.905.163h.021a.745.745,0,0,0,.744-.724l.017-.62,1.534-.821a2.633,2.633,0,0,1,1.964-.215l9.161,2.571.048.012a9.809,9.809,0,0,0,2.014.208,9.936,9.936,0,0,0,4.151-.906.73.73,0,0,0,.092-.05C39.991,270.764,40.1,270.329,39.9,269.986Zm-38.394,8.5,4.416.122Zm24.1-.2a8.441,8.441,0,0,1-5.164.576L11.313,276.3a4.117,4.117,0,0,0-3.07.336l-.784.42.21-7.626a8.185,8.185,0,0,1,8.316-.444l.548.284a7.189,7.189,0,0,0,3.092.8l5.385.148a3.266,3.266,0,0,1,3.1,2.6l-8.022-.221a.745.745,0,0,0-.041,1.489l8.853.244h.021a.745.745,0,0,0,.744-.724,4.752,4.752,0,0,0-.072-.966l5.983-2.827.017-.008a2.275,2.275,0,0,1,2.573.36Zm0,0" transform="translate(0 -240.475)" fill="#fff"/>
    </g>
  </g>
</svg>
