<svg xmlns="http://www.w3.org/2000/svg" width="41.125" height="40.706" viewBox="0 0 41.125 40.706">
  <g id="Group_589" data-name="Group 589" transform="translate(-440.699 -2257.647)">
    <g id="return" transform="translate(440.999 2257.5)">
      <path id="Path_1213" data-name="Path 1213" d="M94.067,49.109H92.76A13.726,13.726,0,1,1,77.34,35.5l-1.383,1.383.924.924,3.077-3.077-3.077-3.076-.924.924,1.574,1.574A15.033,15.033,0,1,0,94.067,49.109Zm0,0" transform="translate(-58.771 -28.607)" fill="#fff" stroke="#fff" stroke-width="0.6"/>
      <path id="Path_1214" data-name="Path 1214" d="M191.766.755,193.047.5l.255,1.282-1.281.255Zm0,0" transform="translate(-176.098)" fill="#fff" stroke="#fff" stroke-width="0.6"/>
      <path id="Path_1215" data-name="Path 1215" d="M145.7,13.618l1.208-.5.5,1.208-1.207.5Zm0,0" transform="translate(-133.799 -11.586)" fill="#fff" stroke="#fff" stroke-width="0.6"/>
      <path id="Path_1216" data-name="Path 1216" d="M103.563,35.386l1.086-.726.726,1.087-1.086.726Zm0,0" transform="translate(-95.101 -31.369)" fill="#fff" stroke="#fff" stroke-width="0.6"/>
      <path id="Path_1217" data-name="Path 1217" d="M66.98,65.213l.924-.924.925.924-.925.925Zm0,0" transform="translate(-61.508 -58.577)" fill="#fff" stroke="#fff" stroke-width="0.6"/>
      <path id="Path_1219" data-name="Path 1219" d="M5.593,89.063l-1.011-.829a20.264,20.264,0,0,0,.579,26.342l.974-.872a18.955,18.955,0,0,1-.542-24.641Zm0,0" transform="translate(0 -80.566)" fill="#fff" stroke="#fff" stroke-width="0.6"/>
      <path id="Path_1220" data-name="Path 1220" d="M285.422,471.521l1.281-.255.255,1.281-1.281.255Zm0,0" transform="translate(-262.102 -432.302)" fill="#fff" stroke="#fff" stroke-width="0.6"/>
      <path id="Path_1221" data-name="Path 1221" d="M329.375,457.082l1.208-.5.5,1.208-1.207.5Zm0,0" transform="translate(-302.464 -418.818)" fill="#fff" stroke="#fff" stroke-width="0.6"/>
      <path id="Path_1222" data-name="Path 1222" d="M370.223,434.48l1.086-.726.726,1.087-1.086.726Zm0,0" transform="translate(-339.974 -397.855)" fill="#fff" stroke="#fff" stroke-width="0.6"/>
      <path id="Path_1223" data-name="Path 1223" d="M406.387,404.628l.924-.925.924.925-.924.924Zm0,0" transform="translate(-373.183 -370.26)" fill="#fff" stroke="#fff" stroke-width="0.6"/>
      <path id="Path_1224" data-name="Path 1224" d="M421.9,79.969l-.974.872a18.956,18.956,0,0,1,.542,24.642l1.011.829a20.265,20.265,0,0,0-.579-26.343Zm0,0" transform="translate(-386.531 -72.976)" fill="#fff" stroke="#fff" stroke-width="0.6"/>
    </g>
    <path id="Path_1225" data-name="Path 1225" d="M179.375,118.992v.6a3.943,3.943,0,0,0-3.375,3.9v.562a3.942,3.942,0,0,0,3.938,3.938h2.25a.563.563,0,0,1,.563.563v.562a.563.563,0,0,1-.563.562h-2.25a.563.563,0,0,1-.562-.562v-.562H176v.562a3.944,3.944,0,0,0,3.375,3.9v.6a1.688,1.688,0,1,0,3.375,0v-.6a3.943,3.943,0,0,0,3.375-3.9v-.562a3.943,3.943,0,0,0-3.937-3.938h-2.25a.563.563,0,0,1-.562-.563v-.562a.563.563,0,0,1,.563-.562h2.25a.563.563,0,0,1,.563.563v.562h3.375v-.562a3.943,3.943,0,0,0-3.375-3.9v-.6a1.688,1.688,0,1,0-3.375,0Zm2.25,0v1.687h.562a2.817,2.817,0,0,1,2.756,2.25h-1.164a1.691,1.691,0,0,0-1.591-1.125h-2.25a1.69,1.69,0,0,0-1.688,1.688v.562a1.69,1.69,0,0,0,1.688,1.688h2.25A2.816,2.816,0,0,1,185,128.555v.562a2.816,2.816,0,0,1-2.812,2.812h-.562v1.688a.563.563,0,1,1-1.125,0V131.93h-.562a2.817,2.817,0,0,1-2.756-2.25h1.164a1.691,1.691,0,0,0,1.591,1.125h2.25a1.69,1.69,0,0,0,1.688-1.687v-.562a1.69,1.69,0,0,0-1.688-1.688h-2.25a2.816,2.816,0,0,1-2.812-2.813v-.562a2.816,2.816,0,0,1,2.813-2.812h.563v-1.687a.563.563,0,1,1,1.125,0Zm0,0" transform="translate(281.379 2152.239)" fill="#fecc01" stroke="#fecc01" stroke-linecap="square" stroke-width="0.2"/>
  </g>
</svg>
