<svg xmlns="http://www.w3.org/2000/svg" width="21.428" height="26.1" viewBox="0 0 21.428 26.1">
    <g transform="translate(-45.95 0.05)">
        <g transform="translate(61.234 21.785)">
            <path d="M346.508,429a.508.508,0,1,0,.508.508A.508.508,0,0,0,346.508,429Z" transform="translate(-346 -429)"
                fill="#274180" stroke="#274180" stroke-width="0.1" />
        </g>
        <g transform="translate(51.078 21.785)">
            <path d="M146.508,429a.508.508,0,1,0,.508.508A.508.508,0,0,0,146.508,429Z" transform="translate(-146 -429)"
                fill="#274180" stroke="#274180" stroke-width="0.1" />
        </g>
        <g transform="translate(46)">
            <path
                d="M66.4,19.155a5.739,5.739,0,0,0-2.277-2.042.505.505,0,0,0-.288-.133,5.312,5.312,0,0,0-2.088-.426H60.219v-1.34a5.825,5.825,0,0,0,1.823-2.875h.209a2.03,2.03,0,0,0,1.492-3.408c.032-.027.063-.055.093-.085a1.523,1.523,0,0,0-.587-2.519,5.605,5.605,0,0,0-4.075-4.956A1.616,1.616,0,0,0,57.68,0H55.648a1.616,1.616,0,0,0-1.494,1.372A5.605,5.605,0,0,0,50.08,6.327a1.523,1.523,0,0,0-.493,2.6,2.03,2.03,0,0,0,1.491,3.408h.207a5.837,5.837,0,0,0,1.422,2.495c.128.133.263.26.4.38v1.34H51.586a5.313,5.313,0,0,0-2.088.426.505.505,0,0,0-.288.133A5.818,5.818,0,0,0,46,22.293v3.2a.508.508,0,0,0,.508.508H66.82a.508.508,0,0,0,.508-.508v-3.2A5.773,5.773,0,0,0,66.4,19.155ZM49.047,24.984H47.016V22.293a4.851,4.851,0,0,1,2.031-3.9Zm13.2-13.66h-.023c.015-.169.023-.339.023-.508V9.293a1.016,1.016,0,0,1,0,2.031Zm-8.125-8.88V4.723a.508.508,0,0,0,1.016,0V1.676c0-.315.266-.66.508-.66H57.68c.242,0,.508.346.508.66V4.723a.508.508,0,0,0,1.016,0V2.445a4.59,4.59,0,0,1,3.018,3.8H51.107A4.59,4.59,0,0,1,54.125,2.445Zm-3.047,8.88a1.016,1.016,0,0,1,0-2.031v1.523c0,.169.008.339.023.508Zm0-3.047H50.57a.508.508,0,0,1,0-1.016H62.758a.508.508,0,0,1,0,1.016H51.078Zm1.108,3.462,0-.016a4.683,4.683,0,0,1-.089-.907V9.293h9.141v1.523a4.685,4.685,0,0,1-.089.907l0,.017a4.81,4.81,0,0,1-1.77,2.856,4.36,4.36,0,0,1-5.418,0,4.705,4.705,0,0,1-.515-.463A4.816,4.816,0,0,1,52.186,11.74Zm3.97,13.245H52.094V23.816a.508.508,0,1,0-1.016,0v1.168H50.063V17.848a4.3,4.3,0,0,1,1.016-.248V20.77a.508.508,0,0,0,1.016,0v-3.2H53.4l2.757,2.895Zm-2.031-8.125v-.946a5.348,5.348,0,0,0,5.078,0v.946l-2.539,2.666Zm9.141,8.125H62.25V23.816a.508.508,0,1,0-1.016,0v1.168H57.172v-4.52l2.757-2.895h1.306v3.2a.508.508,0,0,0,1.016,0V17.6a4.3,4.3,0,0,1,1.016.248Zm3.047,0H64.281v-6.6a4.851,4.851,0,0,1,2.031,3.9Z"
                transform="translate(-46)" fill="#274180" stroke="#274180" stroke-width="0.1" />
        </g>
    </g>
</svg>