<svg xmlns="http://www.w3.org/2000/svg" width="22.599" height="26.2" viewBox="0 0 22.599 26.2">
    <g transform="translate(-0.4 0.1)">
        <path d="M261.559,161.016a.508.508,0,1,0-.508-.508A.508.508,0,0,0,261.559,161.016Zm0,0"
            transform="translate(-247.32 -151.875)" fill="#274180" stroke="#274180" stroke-width="0.2" />
        <path d="M161.559,161.016a.508.508,0,1,0-.508-.508A.508.508,0,0,0,161.559,161.016Zm0,0"
            transform="translate(-152.398 -151.875)" fill="#274180" stroke="#274180" stroke-width="0.2" />
        <path
            d="M188.869,230.654a3.194,3.194,0,0,0,2.689.012.508.508,0,1,0-.424-.923,2.179,2.179,0,0,1-1.831-.008.508.508,0,1,0-.433.919Zm0,0"
            transform="translate(-178.527 -218.023)" fill="#274180" stroke="#274180" stroke-width="0.2" />
        <path
            d="M22.9,20.605c0-2.792-3.18-4.982-5.906-5.086L15.6,14.27a6.625,6.625,0,0,0,2.722-5.332V5.586A5.6,5.6,0,0,0,12.72,0H10.689A5.568,5.568,0,0,0,5.121,5.586V8.938A6.636,6.636,0,0,0,7.807,14.26l-1.4,1.259C3.686,15.623.5,17.807.5,20.605v4.887A.508.508,0,0,0,1.008,26H22.391a.508.508,0,0,0,.508-.508ZM10.575,22.648h2.247l.532,2.336H10.027Zm2.291-1.016H10.543l-.39-1.214,1.547-.773,1.58.79ZM11.7,18.12,9.935,15.3a6.6,6.6,0,0,0,3.527,0Zm.727.754,2.438-3.9,1.315,1.181-1.673,3.76ZM10.689,1.016H12.72a4.584,4.584,0,0,1,4.588,4.57v.42l-.954-1.373a.508.508,0,0,0-.78-.065A5.009,5.009,0,0,1,11.7,6.094,5.012,5.012,0,0,1,7.824,4.567a.508.508,0,0,0-.782.069l-.9,1.326V5.586A4.566,4.566,0,0,1,10.689,1.016ZM6.137,8.938V7.764L7.547,5.7A6.083,6.083,0,0,0,11.7,7.109a6.08,6.08,0,0,0,4.156-1.415l1.453,2.092V8.938a5.586,5.586,0,1,1-11.172,0Zm2.4,6.035,2.438,3.9-2.08,1.04L7.22,16.154ZM1.516,20.605c0-2.092,2.543-3.9,4.765-4.062l1.9,4.269a.508.508,0,0,0,.691.248l.362-.181.412,1.283-.662,2.823H1.516Zm20.368,4.379H14.4l-.642-2.815.442-1.275.331.166a.508.508,0,0,0,.691-.248l1.9-4.269c2.222.164,4.765,1.971,4.765,4.063Zm0,0"
            transform="translate(0)" fill="#274180" stroke="#274180" stroke-width="0.2" />
        <path d="M303.59,446h-2.031a.508.508,0,0,0,0,1.016h2.031a.508.508,0,0,0,0-1.016Zm0,0"
            transform="translate(-285.288 -423.352)" fill="#274180" stroke="#274180" stroke-width="0.2" />
        <path d="M381.008,446a.508.508,0,1,1-.508.508A.508.508,0,0,1,381.008,446Zm0,0"
            transform="translate(-360.703 -423.352)" fill="#274180" stroke="#274180" stroke-width="0.2" />
    </g>
</svg>