<svg xmlns="http://www.w3.org/2000/svg" width="120" height="120" viewBox="0 0 120 120">
  <g id="Group_2140" data-name="Group 2140" transform="translate(-451 -716)">
    <g id="Ellipse_64" data-name="Ellipse 64" transform="translate(451 716)" fill="#274180" stroke="rgba(255,255,255,0.1)" stroke-width="10">
      <circle cx="60" cy="60" r="60" stroke="none"/>
      <circle cx="60" cy="60" r="55" fill="none"/>
    </g>
    <path id="Union_2" data-name="Union 2" d="M9,39.235V13.5H0L29.975,0,60,13.5H51V39H48V13.5H12V39.235Z" transform="translate(481 757)" fill="#fff"/>
    <path id="Path_1197" data-name="Path 1197" d="M23.862,10.963a.617.617,0,0,0-.476-.227H21.05a7.962,7.962,0,0,0-2.181-3.572c-2.953-1.942-10.785-1.942-13.737,0A8,8,0,0,0,2.95,10.736H.614a.615.615,0,0,0-.6.739l.346,1.676a.614.614,0,0,0,.6.49h.692a4.149,4.149,0,0,0-1,2.712A4.062,4.062,0,0,0,1.94,19.4c.009.008.018.014.027.022v2.346a.922.922,0,0,0,.922.922H5.043a.922.922,0,0,0,.922-.922v-.943h12.07v.943a.922.922,0,0,0,.922.922h2.154a.923.923,0,0,0,.922-.922v-2.3A4.216,4.216,0,0,0,22.3,13.64h.738a.612.612,0,0,0,.6-.49l.347-1.676A.619.619,0,0,0,23.862,10.963ZM6.144,8.7C8.5,7.154,15.5,7.154,17.854,8.7a7.6,7.6,0,0,1,1.584,3H4.561A7.6,7.6,0,0,1,6.144,8.7ZM3.387,16.585A1.813,1.813,0,1,1,5.2,18.4,1.813,1.813,0,0,1,3.387,16.585ZM18.823,18.4a1.813,1.813,0,1,1,1.813-1.813A1.814,1.814,0,0,1,18.823,18.4Z" transform="translate(499 773.293)" fill="#fff"/>
  </g>
</svg>
