<svg xmlns="http://www.w3.org/2000/svg" width="78.738" height="80" viewBox="0 0 78.738 80">
  <g id="Group_424" data-name="Group 424" transform="translate(-1355.999 -2991)">
    <g id="iconfinder_67_5027861" transform="translate(1355.999 2991)">
      <g id="Group_258" data-name="Group 258" transform="translate(0 0)">
        <g id="Group_257" data-name="Group 257">
          <path id="Path_710" data-name="Path 710" d="M59.429,21.5a5.293,5.293,0,0,0-7.407-.118,5.746,5.746,0,0,0-1.785,4.141v9.461a5.383,5.383,0,0,0-2.744-.758h0a5.308,5.308,0,0,0-3.8,1.582L35.1,44.394a10.552,10.552,0,0,0-3.114,7.542v9.209H30.423a1.272,1.272,0,0,0-1.263,1.263v5.017a1.272,1.272,0,0,0,1.263,1.263h20.2a1.272,1.272,0,0,0,1.263-1.263V62.407a1.272,1.272,0,0,0-1.263-1.263H48.5V58.064l10.37-10.37a7.181,7.181,0,0,0,2.138-5.135V25.3A5.337,5.337,0,0,0,59.429,21.5ZM49.362,66.128H31.685V63.636H49.362Zm9.125-23.6a4.658,4.658,0,0,1-1.4,3.35L46.349,56.616a1.261,1.261,0,0,0-.37.892v3.6H34.514V51.9A8.007,8.007,0,0,1,36.9,46.161l8.586-8.586a2.845,2.845,0,0,1,4.04,0A2.967,2.967,0,0,1,50.2,38.7a3.1,3.1,0,0,1-.438.842,3.584,3.584,0,0,1-.32.37l-6.4,7.811a1.277,1.277,0,0,0,.168,1.785,1.315,1.315,0,0,0,.808.286A1.252,1.252,0,0,0,45,49.343l6.313-7.71a5.014,5.014,0,0,0,.488-.556,5.113,5.113,0,0,0,.892-1.886c.017-.034.017-.051.034-.084l.051-.152c.017-.034,0-.084,0-.118,0-.051.034-.1.034-.135V25.522a3.187,3.187,0,0,1,.993-2.306,2.719,2.719,0,0,1,2.02-.758,2.811,2.811,0,0,1,1.852.825,2.884,2.884,0,0,1,.842,2.02V42.525Z" transform="translate(17.726 11.313)" fill="#42588f"/>
          <path id="Path_711" data-name="Path 711" d="M31.9,61.12H30.334V51.911a10.65,10.65,0,0,0-3.114-7.542l-8.586-8.586a5.378,5.378,0,0,0-3.8-1.582h-.017a5.383,5.383,0,0,0-2.744.758V25.514a5.774,5.774,0,0,0-1.785-4.141,5.133,5.133,0,0,0-3.872-1.448,5.387,5.387,0,0,0-5.1,5.387V42.534a7.234,7.234,0,0,0,2.121,5.135l10.387,10.37V61.12H11.68a1.272,1.272,0,0,0-1.263,1.263V67.4a1.272,1.272,0,0,0,1.263,1.263h20.2A1.272,1.272,0,0,0,33.145,67.4V62.383A1.247,1.247,0,0,0,31.9,61.12ZM15.973,56.642,5.233,45.9a4.727,4.727,0,0,1-1.4-3.35V25.312a2.911,2.911,0,0,1,.825-2.02,2.827,2.827,0,0,1,1.869-.842,2.719,2.719,0,0,1,2.02.758,3.2,3.2,0,0,1,.993,2.306V38.7a.4.4,0,0,0,.034.135v.118l.051.152c0,.017.017.051.017.067a5.113,5.113,0,0,0,.892,1.886,4.9,4.9,0,0,0,.4.471l6.4,7.811a1.252,1.252,0,0,0,.976.455,1.316,1.316,0,0,0,.808-.286,1.258,1.258,0,0,0,.168-1.785l-6.481-7.912c-.084-.084-.168-.185-.253-.286a2.633,2.633,0,0,1-.421-.842,2.944,2.944,0,0,1,.673-1.145,2.816,2.816,0,0,1,2-.842h0a2.855,2.855,0,0,1,2.02.842l8.586,8.586a8.089,8.089,0,0,1,2.374,5.741V61.07H16.327v-3.6A1.137,1.137,0,0,0,15.973,56.642Zm14.663,9.495H12.943V63.646H30.62v2.492Z" transform="translate(-1.31 11.304)" fill="#42588f"/>
          <path id="Path_712" data-name="Path 712" d="M12.1,11.386a1.435,1.435,0,0,0,.589.135,1.258,1.258,0,1,0-1.128-1.835V9.7a1.221,1.221,0,0,0-.084.943A1.237,1.237,0,0,0,12.1,11.386Z" transform="translate(5.597 3.85)" fill="#fecc01"/>
          <path id="Path_713" data-name="Path 713" d="M59.816,26.353A24.979,24.979,0,0,0,14.48,11.875a1.28,1.28,0,0,0,.286,1.768,1.3,1.3,0,0,0,1.768-.3,22.439,22.439,0,1,1-2.912,5.64,1.264,1.264,0,0,0-2.391-.825,24.987,24.987,0,1,0,48.586,8.2Z" transform="translate(4.149 -1.37)" fill="#42588f"/>
          <circle id="Ellipse_57" data-name="Ellipse 57" cx="18" cy="18" r="18" transform="translate(20.999 7)" fill="#fecc01"/>
        </g>
        <rect id="Rectangle_1484" data-name="Rectangle 1484" width="20.202" height="5.017" transform="translate(48.131 73.687)" fill="#42588f"/>
        <rect id="Rectangle_1485" data-name="Rectangle 1485" width="20.202" height="5.017" transform="translate(30.583 78.717) rotate(180)" fill="#42588f"/>
      </g>
    </g>
    <path id="Path_1137" data-name="Path 1137" d="M32.962,18.855,22.231,29.588,18.3,25.661a1.852,1.852,0,0,0-2.619,2.619l5.237,5.237a1.85,1.85,0,0,0,2.619,0L35.582,21.476a1.853,1.853,0,0,0-2.62-2.62Z" transform="translate(1370.664 2989.051)" fill="#fff"/>
  </g>
</svg>
