<svg xmlns="http://www.w3.org/2000/svg" width="120" height="120" viewBox="0 0 120 120">
  <g id="Group_554" data-name="Group 554" transform="translate(-297 426.616)">
    <g id="Ellipse_62" data-name="Ellipse 62" transform="translate(297 -426.616)" fill="#274180" stroke="rgba(255,255,255,0.1)" stroke-width="10">
      <circle cx="60" cy="60" r="60" stroke="none"/>
      <circle cx="60" cy="60" r="55" fill="none"/>
    </g>
    <path id="Union_2" data-name="Union 2" d="M45,45V13.5H15V45H12V13.5H0L29.975,0,60,13.5H48V45Zm-9.965,0a.463.463,0,0,1-.464-.463V42.951H25.737v1.586a.463.463,0,0,1-.464.463H23.141a.463.463,0,0,1-.463-.463V42.951h-.2a1.576,1.576,0,0,1-1.577-1.576V40.261a1.573,1.573,0,0,1,.525-1.174V31.9H20.6a.6.6,0,0,1-.6-.6V27.964a.6.6,0,0,1,.6-.6h.828V25.89A2.89,2.89,0,0,1,24.321,23H35.988a2.89,2.89,0,0,1,2.891,2.89v1.472h.828a.6.6,0,0,1,.6.6V31.3a.6.6,0,0,1-.6.6h-.828v7.187a1.573,1.573,0,0,1,.525,1.174v1.114a1.576,1.576,0,0,1-1.577,1.576h-.194v1.586a.464.464,0,0,1-.464.463Zm-.7-7.962v.845a.761.761,0,0,0,.761.76h1.254a.76.76,0,0,0,.759-.76v-.845a.76.76,0,0,0-.759-.76H35.1A.761.761,0,0,0,34.34,37.038Zm-11.143,0v.845a.76.76,0,0,0,.759.76H25.21a.76.76,0,0,0,.76-.76v-.845a.76.76,0,0,0-.76-.76H23.955A.76.76,0,0,0,23.2,37.038Zm7.746-2.328h6.149V27.6H30.943Zm-7.726,0h6.149V27.6H23.217Zm3.1-9.431a.771.771,0,0,0,.771.77H33.22a.771.771,0,1,0,0-1.542H27.089A.772.772,0,0,0,26.318,25.278Z" transform="translate(327 -388.616)" fill="#fff"/>
  </g>
</svg>
