<svg xmlns="http://www.w3.org/2000/svg" width="20" height="20" viewBox="0 0 20 20">
  <path id="Path_913" data-name="Path 913" d="M17.072,2.929A10,10,0,1,0,2.93,17.071,10.006,10.006,0,0,0,14.749,18.8a.6.6,0,0,0-.572-1.059A8.8,8.8,0,1,1,18.8,10a8.678,8.678,0,0,1-.529,3.022,1.973,1.973,0,0,1-1.554,1.085,1.652,1.652,0,0,1-1.651-1.651V6.113a.6.6,0,1,0-1.2,0v.615a5.063,5.063,0,1,0,.089,6.437,2.859,2.859,0,0,0,2.765,2.145,3.161,3.161,0,0,0,2.633-1.756A9.642,9.642,0,0,0,20,10,9.934,9.934,0,0,0,17.072,2.929ZM10,13.86A3.86,3.86,0,1,1,13.861,10,3.864,3.864,0,0,1,10,13.86Z" transform="translate(-0.001 0)" fill="#da3f42"/>
</svg>
