<svg xmlns="http://www.w3.org/2000/svg" width="80" height="85.491" viewBox="0 0 80 85.491">
  <g id="Group_426" data-name="Group 426" transform="translate(-256 -3236)">
    <g id="Path_1141" data-name="Path 1141" transform="translate(251.316 3115.923)" fill="none">
      <path d="M66.679,205.568l-22-22-22,22L20.611,189.64,4.684,187.563l40-40,40,40L68.757,189.64Z" stroke="none"/>
      <path d="M 64.49247741699219 199.1381683349609 L 65.78197479248047 189.2523498535156 L 66.08045959472656 186.9640502929688 L 68.3687744140625 186.6655883789062 L 78.25453948974609 185.3761749267578 L 44.68399047851562 151.8056182861328 L 11.11345100402832 185.3761749267578 L 20.99920463562012 186.6655883789062 L 23.28752326965332 186.9640502929688 L 23.58600425720215 189.2523498535156 L 24.87550354003906 199.1381683349609 L 42.56267166137695 181.4510040283203 L 44.68399047851562 179.3296966552734 L 46.8053092956543 181.4510040283203 L 64.49247741699219 199.1381683349609 M 66.67924499511719 205.5675659179688 L 44.68399047851562 183.5723266601562 L 22.6887378692627 205.5675659179688 L 20.61120414733887 189.640380859375 L 4.684003829956055 187.56298828125 L 44.68399047851562 147.56298828125 L 84.68399047851562 187.56298828125 L 68.75677490234375 189.640380859375 L 66.67924499511719 205.5675659179688 Z" stroke="none" fill="#42588f"/>
    </g>
    <g id="Path_1142" data-name="Path 1142" transform="translate(40 3115.923)" fill="none">
      <path d="M256,147.563v36.009l22,22,2.077-15.927L296,187.563Z" stroke="none"/>
      <path d="M 259 154.8056488037109 L 259 182.3296813964844 L 275.8084411621094 199.1381225585938 L 277.0978698730469 189.2523651123047 L 277.3963317871094 186.9640350341797 L 279.6846618652344 186.6655731201172 L 289.5704040527344 185.3761749267578 L 259 154.8056488037109 M 256 147.56298828125 L 295.9998474121094 187.56298828125 L 280.0726623535156 189.640380859375 L 277.9952392578125 205.5675659179688 L 256 183.5723266601562 L 256 147.56298828125 Z" stroke="none" fill="#42588f"/>
    </g>
    <g id="Path_1143" data-name="Path 1143" transform="translate(185.975 3239)" fill="#fff">
      <path d="M 109.8749771118164 59.20015716552734 C 107.1239471435547 59.20015716552734 104.5006408691406 58.12998199462891 102.537239074707 56.23440170288086 C 101.7026138305664 56.44206237792969 100.8460922241211 56.54693222045898 99.97993469238281 56.54693984985352 C 98.12690734863281 56.54694747924805 96.30112457275391 56.05839920043945 94.69997406005859 55.13411712646484 C 92.31743621826172 53.75847625732422 90.58075714111328 51.52022171020508 89.82823181152344 48.89692687988281 C 87.20484161376953 48.1444206237793 84.96651458740234 46.40773773193359 83.59093475341797 44.0252571105957 C 82.21527862548828 41.64281463623047 81.83037567138672 38.83594512939453 82.49042510986328 36.18770217895508 C 80.59494781494141 34.22426223754883 79.52497863769531 31.60112380981445 79.52497863769531 28.85015869140625 C 79.52497863769531 26.09918403625488 80.59503173828125 23.47595977783203 82.49050903320312 21.51251983642578 C 81.83074188232422 18.8643684387207 82.21559143066406 16.05754852294922 83.59087371826172 13.67515850067139 C 84.96649932861328 11.29260730743408 87.20487213134766 9.555891036987305 89.82817840576172 8.803369522094727 C 90.58101654052734 6.180027484893799 92.31774139404297 3.941663026809692 94.69986724853516 2.566278696060181 C 96.30101013183594 1.641758561134338 98.12674713134766 1.153078556060791 99.97969055175781 1.153078556060791 C 100.8458786010742 1.153078556060791 101.7025756835938 1.258036732673645 102.5372543334961 1.465804100036621 C 104.5005111694336 -0.4299068748950958 107.1237106323242 -1.500001430511475 109.8749771118164 -1.500001430511475 C 112.6260070800781 -1.500001430511475 115.2492980957031 -0.429848313331604 117.2126998901367 1.465731859207153 C 118.0472564697266 1.258065104484558 118.9038391113281 1.15315854549408 119.7699203491211 1.15315854549408 C 121.6228485107422 1.15315854549408 123.4486465454102 1.641718626022339 125.0499496459961 2.566028594970703 C 127.4325332641602 3.941680669784546 129.1692199707031 6.179931163787842 129.9217376708984 8.80323314666748 C 132.5451354980469 9.555746078491211 134.7834625244141 11.29242706298828 136.1590270996094 13.67489814758301 C 137.5346832275391 16.05734252929688 137.9195861816406 18.86423301696777 137.2595367431641 21.5124683380127 C 139.1549835205078 23.47599792480469 140.2249755859375 26.09916687011719 140.2249755859375 28.84999847412109 C 140.2249755859375 31.60099983215332 139.1549377441406 34.22422027587891 137.2594604492188 36.18762588500977 C 137.9192352294922 38.83577728271484 137.5343780517578 41.64260864257812 136.1590728759766 44.02500915527344 C 134.7834777832031 46.40754318237305 132.5451049804688 48.14425659179688 129.9217987060547 48.89678573608398 C 129.1689453125 51.52012634277344 127.4322128295898 53.75850296020508 125.0501098632812 55.13387680053711 C 123.4489440917969 56.05830001831055 121.6231842041016 56.54694747924805 119.7701644897461 56.54703903198242 C 118.9040222167969 56.54707336425781 118.0474319458008 56.4421501159668 117.2126770019531 56.23435211181641 C 115.2492980957031 58.13003158569336 112.6260681152344 59.20015716552734 109.8749771118164 59.20015716552734 Z" stroke="none"/>
      <path d="M 109.8749771118164 57.70015716552734 C 112.5582504272461 57.70015716552734 115.0601501464844 56.5098876953125 116.756950378418 54.53379821777344 C 117.7290954589844 54.87521743774414 118.7485275268555 55.04708480834961 119.7700958251953 55.04703521728516 C 121.3306579589844 55.04696273803711 122.895622253418 54.64570617675781 124.3000793457031 53.83485794067383 C 126.6237335205078 52.49322891235352 128.1952056884766 50.21127700805664 128.677001953125 47.65184020996094 C 131.2365875244141 47.17038726806641 133.5183868408203 45.59873962402344 134.8600006103516 43.27507781982422 C 136.2014923095703 40.95124816894531 136.4216156005859 38.18949890136719 135.5589447021484 35.73194885253906 C 137.5345611572266 34.03532791137695 138.7249755859375 31.5330982208252 138.7249755859375 28.84999847412109 C 138.7249755859375 26.16689872741699 137.5345611572266 23.66482925415039 135.5589447021484 21.96803855895996 C 136.4219360351562 19.510498046875 136.2018127441406 16.74874877929688 134.8600006103516 14.42491817474365 C 133.5183868408203 12.1012487411499 131.2365875244141 10.52960872650146 128.6768188476562 10.04815864562988 C 128.1953735351562 7.488548755645752 126.6237335205078 5.20676851272583 124.3000640869141 3.865138530731201 C 122.8952331542969 3.054230451583862 121.3307723999023 2.653154850006104 119.7699203491211 2.653154850006104 C 118.7486801147461 2.653154850006104 117.7287216186523 2.825019836425781 116.7569351196289 3.166208505630493 C 115.0601501464844 1.19027853012085 112.5584182739258 -1.41723637625546e-06 109.8749771118164 -1.41723637625546e-06 C 107.1915435791016 -1.41723637625546e-06 104.6896438598633 1.19027853012085 102.9930267333984 3.16636848449707 C 102.020881652832 2.824944019317627 101.0012512207031 2.653078079223633 99.97968292236328 2.653078079223633 C 98.41912078857422 2.653078079223633 96.85434722900391 3.054354667663574 95.44989776611328 3.865298509597778 C 93.12623596191406 5.206928730010986 91.55475616455078 7.488878726959229 91.07297515869141 10.04831886291504 C 88.51336669921875 10.52976894378662 86.23159027099609 12.10140895843506 84.88995361328125 14.42507839202881 C 83.54847717285156 16.74890899658203 83.328369140625 19.51065826416016 84.19102478027344 21.96819877624512 C 82.21542358398438 23.66482925415039 81.02497863769531 26.16705894470215 81.02497863769531 28.85015869140625 C 81.02497863769531 31.53325843811035 82.21525573730469 34.03532791137695 84.19102478027344 35.73210906982422 C 83.32803344726562 38.18965911865234 83.54814910888672 40.95140838623047 84.88995361328125 43.27523803710938 C 86.23159027099609 45.59890747070312 88.51336669921875 47.17054748535156 91.07315063476562 47.65200042724609 C 91.55459594726562 50.21159744262695 93.12623596191406 52.49338912963867 95.44989776611328 53.83502960205078 C 96.8544921875 54.64585494995117 98.41919708251953 55.04694747924805 99.97993469238281 55.04693984985352 C 101.001350402832 55.04693222045898 102.0210952758789 54.8751335144043 102.993034362793 54.53395843505859 C 104.6898193359375 56.5098876953125 107.1917037963867 57.70015716552734 109.8749771118164 57.70015716552734 M 109.8749771118164 60.70015716552734 C 107.0081634521484 60.70015716552734 104.262825012207 59.68261337280273 102.1010971069336 57.86021423339844 C 101.4032516479492 57.98439788818359 100.6944808959961 58.04693222045898 99.97995758056641 58.04693984985352 C 97.86400604248047 58.04694747924805 95.77890014648438 57.48892974853516 93.95005798339844 56.43319702148438 C 91.46735382080078 54.99972152709961 89.59874725341797 52.74620056152344 88.6378173828125 50.08736801147461 C 85.97889709472656 49.1264533996582 83.72527313232422 47.25784683227539 82.29190826416016 44.77528762817383 C 80.85845947265625 42.29275512695312 80.366943359375 39.40659332275391 80.86426544189453 36.62335968017578 C 79.04222869873047 34.46168899536133 78.02497863769531 31.71667671203613 78.02497863769531 28.85015869140625 C 78.02497863769531 25.9836311340332 79.0423583984375 23.23846054077148 80.86439514160156 21.0767936706543 C 80.36714935302734 18.29353523254395 80.858642578125 15.40785980224609 82.29178619384766 12.92522811889648 C 83.72524261474609 10.44253063201904 85.97898864746094 8.573843002319336 88.63782501220703 7.612907409667969 C 89.59894561767578 4.953857421875 91.46747589111328 2.70051383972168 93.94984436035156 1.267248630523682 C 95.7786865234375 0.2112585753202438 97.86380004882812 -0.3469214141368866 99.97969055175781 -0.3469214141368866 C 100.6943283081055 -0.3469214141368866 101.403190612793 -0.284350723028183 102.1011581420898 -0.1600811183452606 C 104.2627944946289 -1.982640147209167 107.0079116821289 -3.000001430511475 109.8749771118164 -3.000001430511475 C 112.7417831420898 -3.000001430511475 115.4870758056641 -1.982499003410339 117.6488037109375 -0.1601015776395798 C 118.3465881347656 -0.2842822968959808 119.0554504394531 -0.346841424703598 119.7699203491211 -0.346841424703598 C 121.8857498168945 -0.346841424703598 123.9708633422852 0.2111885845661163 125.7998352050781 1.266928553581238 C 128.2826080322266 2.700419902801514 130.1512145996094 4.953946590423584 131.1121520996094 7.612790107727051 C 133.7710723876953 8.573710441589355 136.0247039794922 10.44232082366943 137.4580535888672 12.92488861083984 C 138.8915100097656 15.4074068069458 139.3830108642578 18.29361152648926 138.8856964111328 21.07684326171875 C 140.7076873779297 23.23856925964355 141.7249755859375 25.98361778259277 141.7249755859375 28.84999847412109 C 141.7249755859375 31.7165584564209 140.7076263427734 34.46170425415039 138.8855895996094 36.62335968017578 C 139.3828277587891 39.40662002563477 138.8913269042969 42.29230880737305 137.4581604003906 44.77493667602539 C 136.0247344970703 47.25761795043945 133.7709808349609 49.12630844116211 131.1121520996094 50.08724975585938 C 130.1510162353516 52.74629211425781 128.2824859619141 54.99965286254883 125.8001251220703 56.43290710449219 C 123.9712677001953 57.48878860473633 121.8861999511719 58.04692840576172 119.7702484130859 58.04703903198242 C 119.0556793212891 58.04707336425781 118.3467102050781 57.98450088500977 117.6487503051758 57.86023712158203 C 115.4870300292969 59.6827392578125 112.7418670654297 60.70015716552734 109.8749771118164 60.70015716552734 Z" stroke="none" fill="#42588f"/>
    </g>
    <g id="Path_1146" data-name="Path 1146" transform="translate(136.984 3190.008)" fill="none" stroke-linecap="square">
      <path d="M158.8,98.552a20.78,20.78,0,1,1,20.78-20.78A20.8,20.8,0,0,1,158.8,98.552Z" stroke="none"/>
      <path d="M 158.7959747314453 98.55182647705078 C 170.2539978027344 98.55182647705078 179.5759735107422 89.23002624511719 179.5759735107422 77.77198028564453 C 179.5759735107422 66.31396484375 170.2539978027344 56.99199295043945 158.7959747314453 56.99199295043945 C 147.3379516601562 56.99199295043945 138.0159759521484 66.31379699707031 138.0159759521484 77.77182769775391 C 138.0159759521484 89.22984313964844 147.3379516601562 98.55182647705078 158.7959747314453 98.55182647705078 M 158.7959747314453 101.5518264770508 C 145.6836395263672 101.5518264770508 135.0159759521484 90.88416290283203 135.0159759521484 77.77182769775391 C 135.0159759521484 64.65958404541016 145.6836395263672 53.99199295043945 158.7959747314453 53.99199295043945 C 171.9083099365234 53.99199295043945 182.5759735107422 64.65965270996094 182.5759735107422 77.77198028564453 C 182.5759735107422 90.88423156738281 171.9083099365234 101.5518264770508 158.7959747314453 101.5518264770508 Z" stroke="none" fill="#fecc01"/>
    </g>
    <path id="Path_1147" data-name="Path 1147" d="M154.8,90.552a16.78,16.78,0,1,1,16.78-16.78A16.8,16.8,0,0,1,154.8,90.552Z" transform="translate(140.984 3194.008)" fill="#fecc01"/>
    <text id="_20" data-name="20" transform="translate(306.541 3274.28)" fill="#fff" font-size="18" font-family="OpenSans-ExtraBold, Open Sans" font-weight="800"><tspan x="-21.094" y="0">20</tspan></text>
  </g>
</svg>
