<svg xmlns="http://www.w3.org/2000/svg" width="24" height="18.178" viewBox="0 0 24 18.178">
  <g id="youtube" opacity="0.5">
    <path id="Path_341" data-name="Path 341" d="M197.689,109.545l-5.3-2.9a.974.974,0,0,0-1.441.854v5.752a.972.972,0,0,0,1.435.858l5.3-2.851a.974.974,0,0,0,.006-1.712Zm-5.337,2.982v-4.3l3.963,2.168Zm0,0" transform="translate(-181.995 -101.53)" fill="#fff"/>
    <path id="Path_342" data-name="Path 342" d="M23.823,4.29V4.279a5.489,5.489,0,0,0-1.058-2.785A3.905,3.905,0,0,0,20.178.281L20.059.267l-.042,0C16.844.032,12.052,0,12,0H12c-.048,0-4.84.032-8.041.262l-.042,0L3.8.281a3.807,3.807,0,0,0-2.572,1.25A5.752,5.752,0,0,0,.179,4.266l0,.025C.169,4.371,0,6.284,0,8.205V10c0,1.921.169,3.835.177,3.915v.012A5.435,5.435,0,0,0,1.232,16.68a3.985,3.985,0,0,0,2.673,1.2c.1.011.182.021.239.031l.055.008c1.832.174,7.576.26,7.819.264h.015c.048,0,4.839-.032,8.012-.262l.042,0,.135-.015a3.719,3.719,0,0,0,2.549-1.22,5.751,5.751,0,0,0,1.049-2.735l0-.025C23.83,13.836,24,11.922,24,10v-1.8C24,6.284,23.83,4.371,23.823,4.29ZM22.593,10c0,1.778-.155,3.609-.17,3.777a4.465,4.465,0,0,1-.69,1.948,2.313,2.313,0,0,1-1.66.77l-.15.017c-3.069.222-7.68.256-7.892.257-.238,0-5.9-.09-7.674-.255-.091-.015-.189-.026-.293-.038a2.63,2.63,0,0,1-1.8-.751l-.013-.014a4.051,4.051,0,0,1-.676-1.929c-.011-.127-.17-1.98-.17-3.783v-1.8c0-1.776.155-3.605.17-3.777a4.374,4.374,0,0,1,.69-1.949,2.427,2.427,0,0,1,1.695-.8l.115-.014c3.114-.223,7.757-.256,7.924-.257s4.809.034,7.895.257l.124.015a2.518,2.518,0,0,1,1.722.78l.006.006a4.117,4.117,0,0,1,.676,1.957c.011.12.17,1.977.17,3.784Zm0,0" fill="#fff"/>
  </g>
</svg>
