<svg xmlns="http://www.w3.org/2000/svg" width="79.517" height="79.5" viewBox="0 0 79.517 79.5">
  <g id="Group_427" data-name="Group 427" transform="translate(-988.5 -2164)">
    <g id="yen" transform="translate(990 2162)">
      <path id="Path_731" data-name="Path 731" d="M61.965,84.142l-.005-.025c-.1-.481-.224-1.032-.356-1.561a20.033,20.033,0,0,1-6.616-1.417A21.887,21.887,0,1,1,43.735,69.9a20.02,20.02,0,0,1-1.426-6.623c-.511-.142-1.024-.27-1.537-.378a1.3,1.3,0,0,1-1.03-1.151l-.648-6.672H30.852L30.2,61.751A1.3,1.3,0,0,1,29.176,62.9a26.915,26.915,0,0,0-9.228,3.88,1.309,1.309,0,0,1-1.559-.083l-5.146-4.268-5.81,5.8L11.7,73.367a1.31,1.31,0,0,1,.087,1.55,28.013,28.013,0,0,0-3.908,9.229,1.322,1.322,0,0,1-1.163,1.019L0,85.814V94.04l6.715.647A1.335,1.335,0,0,1,7.89,95.713a26.917,26.917,0,0,0,3.894,9.214,1.309,1.309,0,0,1-.083,1.561l-4.266,5.145,5.808,5.8,5.147-4.266a1.308,1.308,0,0,1,1.543-.09,27.882,27.882,0,0,0,9.241,3.9,1.326,1.326,0,0,1,1.03,1.169l.647,6.708h8.242l.647-6.708a1.342,1.342,0,0,1,1.029-1.183A26.9,26.9,0,0,0,50,113.077a1.308,1.308,0,0,1,1.558.084l5.147,4.267,5.807-5.8-4.267-5.145a1.309,1.309,0,0,1-.092-1.55,27.984,27.984,0,0,0,3.9-9.23,1.3,1.3,0,0,1,1.141-1.019l6.582-.646V85.814L63.1,85.166A1.285,1.285,0,0,1,61.965,84.142Zm0,0" transform="translate(0 -44.848)" fill="none" stroke="#42588f" stroke-width="3"/>
      <path id="Path_1148" data-name="Path 1148" d="M277.753,25.133a12.925,12.925,0,1,0,12.926,12.925A12.925,12.925,0,0,0,277.753,25.133Zm5.541,15.515h-6.331a1.346,1.346,0,0,1-1.253-1.4v-8.31a1.309,1.309,0,0,1,2.619,0v7.093h4.966a1.309,1.309,0,0,1,0,2.619Zm0,0" transform="translate(-217.292 -18.504)" fill="#fecc01"/>
      <path id="Path_1149" data-name="Path 1149" d="M257.629.387A17.545,17.545,0,0,0,243.264,28.02a1.326,1.326,0,0,1,.194.269A17.551,17.551,0,1,0,257.629.387Zm0,33.1a15.544,15.544,0,1,1,15.544-15.544A15.544,15.544,0,0,1,257.629,33.486Zm0,0" transform="translate(-197.167 1.613)" fill="#fecc01"/>
    </g>
    <g id="settings_1_" data-name="settings (1)" transform="translate(1014 2194)">
      <g id="Group_262" data-name="Group 262">
        <path id="Path_732" data-name="Path 732" d="M7.221,10.107a2.149,2.149,0,0,1,1.805.612l1.194,1.194,1.129-1.124L9.717,9.162a.651.651,0,1,1,.92-.92l1.631,1.631L13.4,8.749l-1.2-1.2a2.154,2.154,0,0,1-.612-1.805A5.078,5.078,0,0,0,5.8.056a.3.3,0,0,0-.169.512L7.171,2.105a1.864,1.864,0,0,1,0,2.641l-.945.945a1.864,1.864,0,0,1-2.641,0L2.043,4.154a.3.3,0,0,0-.512.169,5.078,5.078,0,0,0,5.69,5.784Z" transform="translate(-1.475 0)" fill="#42588f"/>
        <path id="Path_733" data-name="Path 733" d="M248.471,243.918l-1.129,1.124,6.7,6.7a.651.651,0,1,1-.92.92l-6.7-6.7-1.129,1.124,6.908,6.908a2.244,2.244,0,0,0,3.173-3.173Z" transform="translate(-233.167 -231.787)" fill="#42588f"/>
        <path id="Path_734" data-name="Path 734" d="M20.67,11.758h2.979l2.979-5.953L25.141,4.318,19.183,7.292v2.979l-8.1,8.072L9.629,16.891,3.761,22.759a3.13,3.13,0,0,0,4.426,4.426l5.869-5.869L12.568,19.83Z" transform="translate(-2.775 -4.103)" fill="#42588f"/>
      </g>
    </g>
  </g>
</svg>
