<svg xmlns="http://www.w3.org/2000/svg" width="19.232" height="16" viewBox="0 0 19.232 16">
  <path id="Path_917" data-name="Path 917" d="M18.925,48.6,11.98,41.653a1.056,1.056,0,0,0-1.489,0l-.631.631a1.045,1.045,0,0,0-.307.744,1.065,1.065,0,0,0,.307.753l4.052,4.061H1.039A1.027,1.027,0,0,0,0,48.877v.892a1.067,1.067,0,0,0,1.039,1.081H13.958l-4.1,4.083a1.042,1.042,0,0,0,0,1.478l.631.629a1.056,1.056,0,0,0,1.489,0l6.946-6.946a1.062,1.062,0,0,0,0-1.494Z" transform="translate(0 -41.346)" fill="#fff"/>
</svg>
