<svg xmlns="http://www.w3.org/2000/svg" width="84" height="78" viewBox="0 0 84 78">
  <g id="Group_441" data-name="Group 441" transform="translate(-1180 -3599)">
    <g id="factory" transform="translate(1180 3605.358)">
      <path id="Path_1160" data-name="Path 1160" d="M34.328,39.675l-15.114,0H15.593V21.008l9.754-9.754,6.51,6.51a4.286,4.286,0,0,0,1.8,1.077V21.2l-2.925,2.925a1.4,1.4,0,0,0-.41.989V27.7a1.4,1.4,0,1,0,2.8,0v-2l1.936-1.936L36.989,25.7v1.795a1.4,1.4,0,0,0,2.8,0V25.118a1.4,1.4,0,0,0-.41-.989L36.453,21.2V18.742a4.316,4.316,0,0,0,1.511-7.084L27.808,1.5,27.8,1.495a5.157,5.157,0,0,0-7.272.011L8.139,13.9a6.266,6.266,0,0,0-5.057,6.14v7.247a1.4,1.4,0,1,0,2.8,0V25.246a6.238,6.238,0,0,0,6.914,0V40.179c-.066.028-.131.058-.2.088a9.322,9.322,0,0,0-6.719.078V37.637a1.4,1.4,0,0,0-2.8,0V42.09A9.317,9.317,0,0,0,0,49.016V70.243a1.4,1.4,0,0,0,1.4,1.4H63.773c0-.066,0-31.967,0-31.967Zm23.465,2.8a3.5,3.5,0,1,1,0,7H15.253a3.5,3.5,0,1,1,0-7Zm-1.259,9.8c1.593,0,3.92-.027,4.239-.077V68.844H56.534ZM9.03,46.942A6.274,6.274,0,0,0,10.682,50.3,1.958,1.958,0,1,1,9.03,46.942ZM20.549,8.765a5.112,5.112,0,0,0,2.068,1.262l-7.535,7.535a6.293,6.293,0,0,0-3.348-3.3L19.292,6.7A5.106,5.106,0,0,0,20.549,8.765ZM36.43,14.711a1.52,1.52,0,0,1-2.594,1.074l-6.51-6.51.486-.486a5.134,5.134,0,0,0,1.262-2.063l6.91,6.911A1.51,1.51,0,0,1,36.43,14.711ZM25.833,3.485a2.347,2.347,0,0,1,.112,3.2,1.431,1.431,0,0,0-.11.1,2.338,2.338,0,0,1-3.307-3.307c.021-.021.04-.044.06-.066A2.352,2.352,0,0,1,25.833,3.485ZM9.337,23.493a3.457,3.457,0,1,1,3.457-3.457A3.461,3.461,0,0,1,9.337,23.493ZM2.8,49.016a6.546,6.546,0,0,1,6.539-6.539q.334,0,.661.033a6.263,6.263,0,0,0-.763,1.608,4.757,4.757,0,1,0,3.8,7.749,7.492,7.492,0,0,0,2.841.4v16.57H2.8ZM53.735,68.844H18.675V58.99H35.054a1.4,1.4,0,1,0,0-2.8H18.675V52.273h35.06Z" transform="translate(0 0)" fill="#42588f"/>
      <path id="Path_1161" data-name="Path 1161" d="M23.419,227.764a1.4,1.4,0,1,0-.989-.411A1.409,1.409,0,0,0,23.419,227.764Zm0,0" transform="translate(-18.938 -193.484)" fill="#42588f"/>
      <path id="Path_1162" data-name="Path 1162" d="M58.13,133.172a1.4,1.4,0,1,0,.989.41A1.408,1.408,0,0,0,58.13,133.172Zm0,0" transform="translate(-48.792 -114.536)" fill="#42588f"/>
      <path id="Path_1163" data-name="Path 1163" d="M163.217,29.061a1.4,1.4,0,1,0-.409-.989A1.411,1.411,0,0,0,163.217,29.061Zm0,0" transform="translate(-140.026 -22.94)" fill="#42588f"/>
      <path id="Path_1164" data-name="Path 1164" d="M193.4,318.543a1.4,1.4,0,1,0,.989.41A1.411,1.411,0,0,0,193.4,318.543Zm0,0" transform="translate(-165.132 -273.968)" fill="#42588f"/>
      <path id="Path_1165" data-name="Path 1165" d="M129.4,318.543a1.4,1.4,0,1,0,.989.41A1.411,1.411,0,0,0,129.4,318.543Zm0,0" transform="translate(-110.088 -273.968)" fill="#42588f"/>
      <path id="Path_1166" data-name="Path 1166" d="M385.4,321.342a1.4,1.4,0,1,0-.989-.41A1.406,1.406,0,0,0,385.4,321.342Zm0,0" transform="translate(-330.265 -273.968)" fill="#42588f"/>
      <path id="Path_1167" data-name="Path 1167" d="M257.4,318.543a1.4,1.4,0,1,0,.989.41A1.41,1.41,0,0,0,257.4,318.543Zm0,0" transform="translate(-220.177 -273.968)" fill="#42588f"/>
      <path id="Path_1168" data-name="Path 1168" d="M321.4,318.543a1.4,1.4,0,1,0,.989.41A1.41,1.41,0,0,0,321.4,318.543Zm0,0" transform="translate(-275.221 -273.968)" fill="#42588f"/>
      <path id="Path_1169" data-name="Path 1169" d="M280.3,404.342a1.4,1.4,0,1,0-.989-.41A1.4,1.4,0,0,0,280.3,404.342Zm0,0" transform="translate(-239.871 -345.353)" fill="#42588f"/>
    </g>
    <g id="sticker" transform="translate(1221.209 3599)">
      <path id="Path_1155" data-name="Path 1155" d="M103,81.567l-5.644-4.554,3.625-6.3-7.659-.67-.672-7.371L86.2,65.757,81.767,60,77.6,65.894l-6.721-3.483-.4,7.635-7.525.4,2.822,7.234L60,81.165l5.913,4.42-2.956,6.3,7.391.8.4,7.5L77.6,96.971,82.171,103,86.2,96.972l6.318,3.081.537-7.5,7.391-.134-2.687-6.162Z" transform="translate(-60.208 -60)" fill="#fecc01"/>
      <g id="Group_440" data-name="Group 440" transform="translate(7.857 16.939)">
        <path id="Path_1156" data-name="Path 1156" d="M143.536,184h5.415v1.406h-3.7V188h3.45V189.4h-3.45v3.981h-1.713Z" transform="translate(-143.536 -183.913)" fill="#fff"/>
        <path id="Path_1157" data-name="Path 1157" d="M200.608,183.477a16.3,16.3,0,0,1,2.59-.2,4.347,4.347,0,0,1,2.895.755,2.377,2.377,0,0,1,.807,1.88,2.5,2.5,0,0,1-1.7,2.352v.043a2.381,2.381,0,0,1,1.309,1.809,18.641,18.641,0,0,0,.739,2.617H205.48a13.267,13.267,0,0,1-.626-2.213c-.265-1.227-.709-1.615-1.685-1.642h-.862v3.856h-1.7Zm1.7,4.151h1.016c1.155,0,1.878-.613,1.878-1.545,0-1.03-.725-1.5-1.837-1.5a4.932,4.932,0,0,0-1.058.084Z" transform="translate(-193.877 -183.262)" fill="#fff"/>
        <path id="Path_1158" data-name="Path 1158" d="M272.968,189.223h-3.535v2.757h3.952v1.406H267.72V184h5.457v1.406h-3.744v2.424h3.535Z" transform="translate(-253.075 -183.913)" fill="#fff"/>
        <path id="Path_1159" data-name="Path 1159" d="M333.688,189.223h-3.535v2.757h3.952v1.406H328.44V184H333.9v1.406h-3.744v2.424h3.535Z" transform="translate(-306.634 -183.913)" fill="#fff"/>
      </g>
    </g>
  </g>
</svg>
