<svg xmlns="http://www.w3.org/2000/svg" width="40" height="40.641" viewBox="0 0 40 40.641">
  <g id="Group_575" data-name="Group 575" transform="translate(-1154 -2483)">
    <g id="Group_572" data-name="Group 572" transform="translate(151 -12)">
      <g id="iconfinder_67_5027861" transform="translate(1001.69 2493.63)">
        <g id="Group_258" data-name="Group 258" transform="translate(1.31 1.37)">
          <g id="Group_257" data-name="Group 257">
            <path id="Path_710" data-name="Path 710" d="M44.537,20.725a2.689,2.689,0,0,0-3.763-.06,2.919,2.919,0,0,0-.907,2.1v4.806a2.735,2.735,0,0,0-1.394-.385h0a2.7,2.7,0,0,0-1.933.8l-4.362,4.362A5.36,5.36,0,0,0,30.6,36.188v4.678h-.8a.646.646,0,0,0-.641.641v2.549a.646.646,0,0,0,.641.641H40.064a.646.646,0,0,0,.641-.641V41.507a.646.646,0,0,0-.641-.641H38.987V39.3l5.268-5.268a3.648,3.648,0,0,0,1.086-2.609V22.658A2.711,2.711,0,0,0,44.537,20.725ZM39.423,43.4h-8.98V42.132h8.98Zm4.635-11.991a2.367,2.367,0,0,1-.71,1.7l-5.456,5.456a.641.641,0,0,0-.188.453v1.83H31.88V36.171a4.067,4.067,0,0,1,1.214-2.916l4.362-4.362a1.445,1.445,0,0,1,2.053,0,1.507,1.507,0,0,1,.342.573,1.573,1.573,0,0,1-.222.428,1.82,1.82,0,0,1-.162.188l-3.25,3.968a.649.649,0,0,0,.086.907.668.668,0,0,0,.411.145.636.636,0,0,0,.5-.231l3.207-3.917a2.547,2.547,0,0,0,.248-.282,2.6,2.6,0,0,0,.453-.958c.009-.017.009-.026.017-.043l.026-.077c.009-.017,0-.043,0-.06s.017-.051.017-.068v-6.7a1.619,1.619,0,0,1,.5-1.172,1.381,1.381,0,0,1,1.026-.385,1.428,1.428,0,0,1,.941.419,1.465,1.465,0,0,1,.428,1.026v8.749Z" transform="translate(-5.341 -4.056)" fill="#fff"/>
            <path id="Path_711" data-name="Path 711" d="M16.85,40.847h-.8V36.169a5.411,5.411,0,0,0-1.582-3.832l-4.362-4.362a2.732,2.732,0,0,0-1.933-.8H8.169a2.735,2.735,0,0,0-1.394.385v-4.8a2.934,2.934,0,0,0-.907-2.1A2.608,2.608,0,0,0,3.9,19.919,2.737,2.737,0,0,0,1.31,22.656V31.4a3.675,3.675,0,0,0,1.078,2.609l5.277,5.268v1.565H6.578a.646.646,0,0,0-.641.641v2.549a.646.646,0,0,0,.641.641H16.841a.646.646,0,0,0,.641-.641V41.488A.633.633,0,0,0,16.85,40.847ZM8.759,38.572,3.3,33.115a2.4,2.4,0,0,1-.71-1.7V22.656a1.479,1.479,0,0,1,.419-1.026,1.436,1.436,0,0,1,.949-.428,1.381,1.381,0,0,1,1.026.385,1.623,1.623,0,0,1,.5,1.172v6.7a.2.2,0,0,0,.017.068v.06l.026.077c0,.009.009.026.009.034A2.6,2.6,0,0,0,6,30.652a2.49,2.49,0,0,0,.205.239l3.25,3.968a.636.636,0,0,0,.5.231.668.668,0,0,0,.411-.145.639.639,0,0,0,.086-.907l-3.293-4.02c-.043-.043-.086-.094-.128-.145a1.338,1.338,0,0,1-.214-.428,1.5,1.5,0,0,1,.342-.582,1.431,1.431,0,0,1,1.018-.428h0a1.45,1.45,0,0,1,1.026.428l4.362,4.362a4.109,4.109,0,0,1,1.206,2.916v4.678H8.939v-1.83A.578.578,0,0,0,8.759,38.572ZM16.208,43.4H7.22V42.13H16.2V43.4Z" transform="translate(-1.31 -4.054)" fill="#fff"/>
            <path id="Path_712" data-name="Path 712" d="M11.761,10.216a.729.729,0,0,0,.3.068.639.639,0,1,0-.573-.932V9.36a.62.62,0,0,0-.043.479A.628.628,0,0,0,11.761,10.216Z" transform="translate(-2.773 -2.476)" fill="#fecc01"/>
            <path id="Path_713" data-name="Path 713" d="M35.234,14.062A12.69,12.69,0,0,0,12.2,6.707a.65.65,0,0,0,.145.9.66.66,0,0,0,.9-.154,11.4,11.4,0,1,1-1.48,2.865A.642.642,0,0,0,10.551,9.9a12.694,12.694,0,1,0,24.682,4.165Z" transform="translate(-2.546 -1.37)" fill="#fff"/>
            <path id="Path_714" data-name="Path 714" d="M23.121,23.92a9.275,9.275,0,1,0-9.271-9.279A9.278,9.278,0,0,0,23.121,23.92Zm0-17.267a7.988,7.988,0,1,1-7.988,7.988A8,8,0,0,1,23.121,6.653Z" transform="translate(-3.125 -1.949)" fill="#fecc01"/>
          </g>
          <rect id="Rectangle_1484" data-name="Rectangle 1484" width="10.263" height="2.549" transform="translate(24.451 37.434)" fill="#fff"/>
          <rect id="Rectangle_1485" data-name="Rectangle 1485" width="10.263" height="2.549" transform="translate(15.537 39.99) rotate(180)" fill="#fff"/>
        </g>
      </g>
    </g>
    <path id="Path_717" data-name="Path 717" d="M24.195,18.589l-5.452,5.452-1.995-1.995a.941.941,0,1,0-1.331,1.331l2.661,2.661a.94.94,0,0,0,1.331,0l6.117-6.117a.941.941,0,0,0-1.331-1.331Z" transform="translate(1154 2474)" fill="#fecc01"/>
  </g>
</svg>
