<svg id="Group_256" data-name="Group 256" xmlns="http://www.w3.org/2000/svg" width="40" height="40" viewBox="0 0 40 40">
  <path id="Path_704" data-name="Path 704" d="M65.061,88.36l6.517-9.915a.622.622,0,0,1,.819-.2h0l.72.4,1.388-2.4a6.488,6.488,0,0,1-.661-5.584,14.8,14.8,0,0,1,3.078-4.773,2.233,2.233,0,0,1,3.292-.158l4.212-7.3a2.045,2.045,0,0,1,2.083-1.09,2.281,2.281,0,0,1,1.5.856,2.045,2.045,0,0,1,.132,2.346l-2.506,4.459a2.124,2.124,0,0,1,1.983,1.562,2.137,2.137,0,0,1,2.472,2.387c1.624,0,2.274,1.772,1.584,3.129l-1.689,3.319a.585.585,0,0,1-.035.061l-1.981,3.412a6.324,6.324,0,0,1-3.508,2.93L83.1,84.155l.8.441a.623.623,0,0,1,.247.847l-.019.032L82.493,88.36Zm10.08-10.735a35.931,35.931,0,0,0,3.651,2.564,41.19,41.19,0,0,0,3.93,2.126l.772-1.336a.622.622,0,0,1,.393-.315,5.023,5.023,0,0,0,3.005-2.423l1.982-3.413h0l1.689-3.319c.515-1.013-.395-1.818-1.136-.931l-.391.466a.622.622,0,0,1-1.017-.71l.7-1.218a.863.863,0,1,0-1.5-.855l-.513.887a.625.625,0,1,1-1.078-.622l.634-1.1a.746.746,0,0,0-.624-1.179.98.98,0,0,0-.985.518l-.7,1.213a.624.624,0,1,1-1.089-.61l4.184-7.443a.849.849,0,0,0-.03-.974,1.016,1.016,0,0,0-.665-.378.85.85,0,0,0-.853.475L80.731,67.32l-2.162,3.745a.625.625,0,1,1-1.081-.623l2.086-3.612a1.08,1.08,0,0,0-1.708-.138,13.776,13.776,0,0,0-2.839,4.349,5.409,5.409,0,0,0,.73,4.853h0a.622.622,0,0,1,.013.641l-.628,1.089ZM82.1,83.4a42.276,42.276,0,0,1-3.959-2.144,37.269,37.269,0,0,1-3.629-2.535l-.705,1.221a17.284,17.284,0,0,0,3.4,2.914l.034.02a19.951,19.951,0,0,0,4.012,2L82.1,83.4Z" transform="translate(-54.895 -48.36)" fill="#fff"/>
  <path id="Path_705" data-name="Path 705" d="M3.729,0l1,2.24,2.44.257.069.211L5.414,4.352l.509,2.4-.179.131L3.618,5.656,1.493,6.882l-.18-.13.509-2.4L0,2.709.069,2.5l2.44-.257,1-2.24ZM11.92,0H11.7l-1,2.24L8.26,2.5l-.068.211,1.822,1.642L9.5,6.751l.18.13,2.125-1.226,2.125,1.226.18-.131-.509-2.4,1.822-1.642L15.358,2.5l-2.439-.258L11.92,0Zm8.191,0h-.222l-1,2.24L16.451,2.5l-.069.211L18.2,4.351l-.509,2.4.18.13L20,5.656l2.125,1.226.18-.131-.509-2.4,1.822-1.642L23.549,2.5l-2.44-.258L20.111,0ZM28.3,0H28.08l-1,2.24-2.44.257-.069.211L26.4,4.351l-.509,2.4.179.13,2.125-1.226,2.125,1.226.18-.131-.509-2.4,1.823-1.642L31.74,2.5,29.3,2.24,28.3,0Zm8.191,0h-.222l-1,2.24-2.44.257-.068.211,1.822,1.642-.509,2.4.18.13,2.125-1.226,2.125,1.226.18-.131-.509-2.4L40,2.709,39.931,2.5l-2.44-.257-1-2.24Z" fill="#fecc01"/>
</svg>
