<svg xmlns="http://www.w3.org/2000/svg" width="33.456" height="40" viewBox="0 0 33.456 40">
  <g id="Group_261" data-name="Group 261" transform="translate(-900 -2029.006)">
    <g id="Group_260" data-name="Group 260" transform="translate(-4451.407 -627)">
      <path id="Shape" d="M38.092,6.209c0,12,.228,13.649-.69,17.243H34.52c1.062-3.58.814-5.573.814-14.849-5.152.366-9.925-1.752-13.794-5.083C18.822,5.857,14.422,8.643,8.9,8.643H7.718v9.249a20.56,20.56,0,0,0,.841,5.559H5.676c-.938-3.593-.69-5.242-.69-17.243a.69.69,0,0,1,.828-.69C13.553,7.312,19.381,1.891,21.05.208a.69.69,0,0,1,.979,0c1.669,1.683,7.5,7.1,15.236,5.311a.69.69,0,0,1,.828.69Z" transform="translate(5346.45 2656.002)" fill="#fff"/>
      <path id="Shape-2" data-name="Shape" d="M45.93,12.487C45.757,12.487,45.688,12.473,45.93,12.487Z" transform="translate(5333.784 2652.13)" fill="#0377bc"/>
      <path id="Shape-3" data-name="Shape" d="M34.312,48v.421a40.568,40.568,0,0,1-9.339,6.394.648.648,0,0,1-.635,0A40.692,40.692,0,0,1,15,48.421V48h3.731a37.458,37.458,0,0,0,5.925,3.849A38.568,38.568,0,0,0,30.58,48Z" transform="translate(5343.333 2641.109)" fill="#fff"/>
    </g>
    <path id="Path_718" data-name="Path 718" d="M1.335,0,2.5,2.6l2.836.3.08.246L3.293,5.059l.591,2.79L3.676,8,1.206,6.575-1.264,8l-.209-.152.591-2.79L-3,3.149l.08-.246,2.836-.3L1.077,0ZM13.857,0H13.6L12.437,2.6,9.6,2.9l-.08.246L11.64,5.058l-.592,2.79L11.257,8l2.47-1.425L16.2,8l.209-.152-.592-2.789L17.933,3.15l-.08-.246-2.836-.3L13.857,0ZM26.379,0H26.12L24.959,2.6l-2.836.3-.08.246,2.118,1.909-.592,2.79L23.779,8l2.47-1.424L28.72,8l.209-.152-.592-2.79L30.455,3.15l-.08-.246L27.54,2.6,26.379,0Z" transform="translate(903 2053)" fill="#fecc01"/>
    <rect id="Rectangle_1486" data-name="Rectangle 1486" width="2" height="12" transform="translate(916 2038)" fill="#fff"/>
    <rect id="Rectangle_1487" data-name="Rectangle 1487" width="2" height="9" transform="translate(910 2041)" fill="#fff"/>
    <rect id="Rectangle_1488" data-name="Rectangle 1488" width="2" height="9" transform="translate(922 2041)" fill="#fff"/>
  </g>
</svg>
