<svg xmlns="http://www.w3.org/2000/svg" width="15.56" height="20" viewBox="0 0 15.56 20">
  <path id="Path_340" data-name="Path 340" d="M38.079,39.1C36.862,39,36.35,38.4,35.4,37.821c-.525,2.753-1.166,5.393-3.066,6.772-.587-4.161.861-7.287,1.533-10.6-1.146-1.929.138-5.812,2.555-4.855,2.975,1.176-2.576,7.173,1.151,7.922,3.89.782,5.478-6.75,3.066-9.2-3.486-3.537-10.146-.08-9.327,4.983.2,1.238,1.479,1.614.511,3.322-2.231-.494-2.9-2.254-2.811-4.6a7.507,7.507,0,0,1,6.772-6.9c4.2-.47,8.145,1.543,8.689,5.495.612,4.46-1.9,9.291-6.389,8.944Z" transform="translate(-29 -24.593)" fill="#f1f2f2"/>
</svg>
