<svg xmlns="http://www.w3.org/2000/svg" width="100" height="100" viewBox="0 0 100 100">
  <g id="Group_2449" data-name="Group 2449" transform="translate(-392 -1235)">
    <g id="Ellipse_71" data-name="Ellipse 71" transform="translate(392 1235)" fill="none" stroke="#d9dff2" stroke-width="2" stroke-dasharray="4 4">
      <circle cx="50" cy="50" r="50" stroke="none"/>
      <circle cx="50" cy="50" r="49" fill="none"/>
    </g>
    <g id="Group_736" data-name="Group 736" transform="translate(-944 -1736)">
      <g id="iconfinder_67_5027861" transform="translate(1355.999 2991)">
        <g id="Group_258" data-name="Group 258" transform="translate(0 0)">
          <g id="Group_257" data-name="Group 257">
            <path id="Path_710" data-name="Path 710" d="M51.862,21.105a3.97,3.97,0,0,0-5.556-.088,4.309,4.309,0,0,0-1.338,3.106v7.1a4.037,4.037,0,0,0-2.058-.568h0a3.981,3.981,0,0,0-2.854,1.187l-6.439,6.439a7.914,7.914,0,0,0-2.336,5.657V50.84H30.107a.954.954,0,0,0-.947.947V55.55a.954.954,0,0,0,.947.947H45.258a.954.954,0,0,0,.947-.947V51.787a.954.954,0,0,0-.947-.947H43.668V48.529l7.778-7.778a5.385,5.385,0,0,0,1.6-3.851V23.959A4,4,0,0,0,51.862,21.105Zm-7.55,33.472H31.054V52.709H44.312Zm6.843-17.7a3.494,3.494,0,0,1-1.048,2.513l-8.056,8.056a.946.946,0,0,0-.278.669v2.7h-8.6V43.908A6,6,0,0,1,34.968,39.6l6.439-6.439a2.134,2.134,0,0,1,3.03,0,2.225,2.225,0,0,1,.505.846,2.323,2.323,0,0,1-.328.631,2.688,2.688,0,0,1-.24.278l-4.8,5.859a.957.957,0,0,0,.126,1.338.987.987,0,0,0,.606.215.939.939,0,0,0,.732-.341l4.735-5.783a3.761,3.761,0,0,0,.366-.417,3.835,3.835,0,0,0,.669-1.414c.013-.025.013-.038.025-.063l.038-.114c.013-.025,0-.063,0-.088s.025-.076.025-.1V24.123a2.39,2.39,0,0,1,.745-1.73,2.039,2.039,0,0,1,1.515-.568,2.108,2.108,0,0,1,1.389.619,2.163,2.163,0,0,1,.631,1.515V36.875Z" transform="translate(6.004 3.503)" fill="#42588f"/>
            <path id="Path_711" data-name="Path 711" d="M24.252,50.818H23.078V43.912a7.988,7.988,0,0,0-2.336-5.657L14.3,31.816a4.033,4.033,0,0,0-2.854-1.187h-.013a4.037,4.037,0,0,0-2.058.568V24.114A4.331,4.331,0,0,0,8.04,21.008a3.85,3.85,0,0,0-2.9-1.086,4.04,4.04,0,0,0-3.826,4.04V36.879A5.426,5.426,0,0,0,2.9,40.73l7.79,7.778v2.311h-1.6a.954.954,0,0,0-.947.947v3.763a.954.954,0,0,0,.947.947H24.239a.954.954,0,0,0,.947-.947V51.765A.935.935,0,0,0,24.252,50.818ZM12.307,47.46,4.252,39.4A3.546,3.546,0,0,1,3.2,36.892V23.962a2.183,2.183,0,0,1,.619-1.515,2.12,2.12,0,0,1,1.4-.631,2.039,2.039,0,0,1,1.515.568,2.4,2.4,0,0,1,.745,1.73V34a.3.3,0,0,0,.025.1v.088l.038.114c0,.013.013.038.013.051a3.835,3.835,0,0,0,.669,1.414,3.676,3.676,0,0,0,.3.354l4.8,5.859a.939.939,0,0,0,.732.341.987.987,0,0,0,.606-.215.944.944,0,0,0,.126-1.338L9.934,34.833c-.063-.063-.126-.139-.189-.215a1.975,1.975,0,0,1-.316-.631,2.208,2.208,0,0,1,.505-.859,2.112,2.112,0,0,1,1.5-.631h0a2.141,2.141,0,0,1,1.515.631l6.439,6.439a6.066,6.066,0,0,1,1.78,4.306V50.78h-8.6v-2.7A.853.853,0,0,0,12.307,47.46Zm11,7.121H10.035V52.712H23.292v1.869Z" transform="translate(-1.31 3.5)" fill="#42588f"/>
            <path id="Path_712" data-name="Path 712" d="M11.926,10.791a1.076,1.076,0,0,0,.442.1.944.944,0,1,0-.846-1.376v.013a.916.916,0,0,0-.063.707A.927.927,0,0,0,11.926,10.791Z" transform="translate(1.344 0.636)" fill="#fecc01"/>
            <path id="Path_713" data-name="Path 713" d="M47.325,20.107a18.734,18.734,0,0,0-34-10.859.96.96,0,0,0,.215,1.326.974.974,0,0,0,1.326-.227,16.829,16.829,0,1,1-2.184,4.23.948.948,0,0,0-1.793-.619,18.74,18.74,0,1,0,36.439,6.149Z" transform="translate(0.649 -1.37)" fill="#42588f"/>
            <circle id="Ellipse_57" data-name="Ellipse 57" cx="13.5" cy="13.5" r="13.5" transform="translate(15.749 5.25)" fill="#fecc01"/>
          </g>
          <rect id="Rectangle_1484" data-name="Rectangle 1484" width="15.151" height="3.763" transform="translate(36.098 55.265)" fill="#42588f"/>
          <rect id="Rectangle_1485" data-name="Rectangle 1485" width="15.151" height="3.763" transform="translate(22.937 59.038) rotate(180)" fill="#42588f"/>
        </g>
      </g>
      <path id="Path_1137" data-name="Path 1137" d="M28.507,18.72l-8.049,8.049-2.945-2.945a1.389,1.389,0,0,0-1.965,1.965l3.928,3.928a1.388,1.388,0,0,0,1.965,0l9.031-9.031a1.39,1.39,0,0,0-1.965-1.965Z" transform="translate(1363.213 2984.959)" fill="#fff"/>
    </g>
  </g>
</svg>
