<svg xmlns="http://www.w3.org/2000/svg" width="40.009" height="40" viewBox="0 0 40.009 40">
  <g id="Group_263" data-name="Group 263" transform="translate(-990 -2162)">
    <g id="yen" transform="translate(990 2161.613)">
      <path id="Path_729" data-name="Path 729" d="M271.29,25.133a6.463,6.463,0,1,0,6.463,6.463A6.463,6.463,0,0,0,271.29,25.133Zm2.77,7.757H270.9a.673.673,0,0,1-.627-.7V28.034a.655.655,0,1,1,1.309,0v3.547h2.483a.655.655,0,0,1,0,1.309Zm0,0" transform="translate(-240.06 -22.432)" fill="#fecc01"/>
      <path id="Path_730" data-name="Path 730" d="M248.851.387A8.773,8.773,0,0,0,241.669,14.2a.662.662,0,0,1,.1.134A8.776,8.776,0,1,0,248.851.387Zm0,16.55a7.772,7.772,0,1,1,7.772-7.772A7.772,7.772,0,0,1,248.851,16.936Zm0,0" transform="translate(-217.621)" fill="#fecc01"/>
      <path id="Path_731" data-name="Path 731" d="M30.982,69.61l0-.012c-.052-.24-.112-.516-.178-.78a10.017,10.017,0,0,1-3.308-.708,10.944,10.944,0,1,1-5.627-5.618,10.01,10.01,0,0,1-.713-3.312c-.255-.071-.512-.135-.768-.189a.652.652,0,0,1-.515-.575l-.324-3.336H15.426L15.1,58.414a.651.651,0,0,1-.514.574,13.458,13.458,0,0,0-4.614,1.94.655.655,0,0,1-.779-.042L6.622,58.752l-2.9,2.9,2.132,2.573A.655.655,0,0,1,5.893,65a14.006,14.006,0,0,0-1.954,4.615.661.661,0,0,1-.582.51L0,70.446v4.113l3.357.324a.668.668,0,0,1,.587.513A13.459,13.459,0,0,0,5.892,80a.655.655,0,0,1-.041.78L3.718,83.356l2.9,2.9L9.2,84.121a.654.654,0,0,1,.772-.045,13.941,13.941,0,0,0,4.62,1.948.663.663,0,0,1,.515.585l.324,3.354h4.121l.324-3.354a.671.671,0,0,1,.514-.591A13.451,13.451,0,0,0,25,84.078a.654.654,0,0,1,.779.042l2.573,2.134,2.9-2.9-2.134-2.573a.654.654,0,0,1-.046-.775,13.992,13.992,0,0,0,1.948-4.615.649.649,0,0,1,.571-.51l3.291-.323V70.446l-3.337-.324A.643.643,0,0,1,30.982,69.61Zm0,0" transform="translate(0 -49.576)" fill="#fff"/>
    </g>
    <g id="settings_1_" data-name="settings (1)" transform="translate(1000.524 2178)">
      <g id="Group_262" data-name="Group 262" transform="translate(1.475 0)">
        <path id="Path_732" data-name="Path 732" d="M4.348,5.054a1.074,1.074,0,0,1,.9.306l.6.6.564-.562L5.6,4.581a.325.325,0,0,1,.46-.46l.816.816.564-.562-.6-.6a1.077,1.077,0,0,1-.306-.9A2.539,2.539,0,0,0,3.639.028a.151.151,0,0,0-.085.256l.768.768a.932.932,0,0,1,0,1.32l-.472.472a.932.932,0,0,1-1.32,0l-.771-.768a.152.152,0,0,0-.256.085A2.539,2.539,0,0,0,4.348,5.054Z" transform="translate(-1.475 0)" fill="#fff"/>
        <path id="Path_733" data-name="Path 733" d="M246.882,243.918l-.564.562,3.352,3.352a.325.325,0,1,1-.46.46l-3.352-3.352-.564.562,3.454,3.454a1.122,1.122,0,0,0,1.587-1.587Z" transform="translate(-239.23 -237.852)" fill="#fff"/>
        <path id="Path_734" data-name="Path 734" d="M11.757,8.038h1.49l1.49-2.977-.744-.744L11.013,5.805v1.49L6.965,11.33,6.236,10.6,3.3,13.539a1.565,1.565,0,1,0,2.213,2.213l2.934-2.934-.744-.744Z" transform="translate(-2.809 -4.211)" fill="#fff"/>
      </g>
    </g>
  </g>
</svg>
