<svg xmlns="http://www.w3.org/2000/svg" xmlns:xlink="http://www.w3.org/1999/xlink" width="1600" height="568" viewBox="0 0 1600 568">
  <defs>
    <clipPath id="clip-path">
      <rect id="Rectangle_1566" data-name="Rectangle 1566" width="1600" height="568" transform="translate(0 3298)" fill="#fafbff" opacity="0.94"/>
    </clipPath>
    <clipPath id="clip-path-2">
      <rect width="2253.76" height="566.65" fill="none"/>
    </clipPath>
  </defs>
  <g id="Mask_Group_13" data-name="Mask Group 13" transform="translate(0 -3298)" clip-path="url(#clip-path)">
    <g id="Repeat_Grid_2" data-name="Repeat Grid 2" transform="translate(-644.88 3299.175)" opacity="0.8" clip-path="url(#clip-path-2)">
      <g transform="translate(610.88 -3918.175)">
        <line id="Line_7" data-name="Line 7" x1="644" y2="753" transform="translate(-610.5 3918.5)" fill="none" stroke="#779eff" stroke-width="4"/>
      </g>
      <g transform="translate(625.88 -3918.175)">
        <line id="Line_8" data-name="Line 8" x1="644" y2="753" transform="translate(-610.5 3918.5)" fill="none" stroke="#779eff" stroke-width="4"/>
      </g>
      <g transform="translate(640.88 -3918.175)">
        <line id="Line_9" data-name="Line 9" x1="644" y2="753" transform="translate(-610.5 3918.5)" fill="none" stroke="#779eff" stroke-width="4"/>
      </g>
      <g transform="translate(655.88 -3918.175)">
        <line id="Line_10" data-name="Line 10" x1="644" y2="753" transform="translate(-610.5 3918.5)" fill="none" stroke="#779eff" stroke-width="4"/>
      </g>
      <g transform="translate(670.88 -3918.175)">
        <line id="Line_11" data-name="Line 11" x1="644" y2="753" transform="translate(-610.5 3918.5)" fill="none" stroke="#779eff" stroke-width="4"/>
      </g>
      <g transform="translate(685.88 -3918.175)">
        <line id="Line_12" data-name="Line 12" x1="644" y2="753" transform="translate(-610.5 3918.5)" fill="none" stroke="#779eff" stroke-width="4"/>
      </g>
      <g transform="translate(700.88 -3918.175)">
        <line id="Line_13" data-name="Line 13" x1="644" y2="753" transform="translate(-610.5 3918.5)" fill="none" stroke="#779eff" stroke-width="4"/>
      </g>
      <g transform="translate(715.88 -3918.175)">
        <line id="Line_14" data-name="Line 14" x1="644" y2="753" transform="translate(-610.5 3918.5)" fill="none" stroke="#779eff" stroke-width="4"/>
      </g>
      <g transform="translate(730.88 -3918.175)">
        <line id="Line_15" data-name="Line 15" x1="644" y2="753" transform="translate(-610.5 3918.5)" fill="none" stroke="#779eff" stroke-width="4"/>
      </g>
      <g transform="translate(745.88 -3918.175)">
        <line id="Line_16" data-name="Line 16" x1="644" y2="753" transform="translate(-610.5 3918.5)" fill="none" stroke="#779eff" stroke-width="4"/>
      </g>
      <g transform="translate(760.88 -3918.175)">
        <line id="Line_17" data-name="Line 17" x1="644" y2="753" transform="translate(-610.5 3918.5)" fill="none" stroke="#779eff" stroke-width="4"/>
      </g>
      <g transform="translate(775.88 -3918.175)">
        <line id="Line_18" data-name="Line 18" x1="644" y2="753" transform="translate(-610.5 3918.5)" fill="none" stroke="#779eff" stroke-width="4"/>
      </g>
      <g transform="translate(790.88 -3918.175)">
        <line id="Line_19" data-name="Line 19" x1="644" y2="753" transform="translate(-610.5 3918.5)" fill="none" stroke="#779eff" stroke-width="4"/>
      </g>
      <g transform="translate(805.88 -3918.175)">
        <line id="Line_20" data-name="Line 20" x1="644" y2="753" transform="translate(-610.5 3918.5)" fill="none" stroke="#779eff" stroke-width="4"/>
      </g>
      <g transform="translate(820.88 -3918.175)">
        <line id="Line_21" data-name="Line 21" x1="644" y2="753" transform="translate(-610.5 3918.5)" fill="none" stroke="#779eff" stroke-width="4"/>
      </g>
      <g transform="translate(835.88 -3918.175)">
        <line id="Line_22" data-name="Line 22" x1="644" y2="753" transform="translate(-610.5 3918.5)" fill="none" stroke="#779eff" stroke-width="4"/>
      </g>
      <g transform="translate(850.88 -3918.175)">
        <line id="Line_23" data-name="Line 23" x1="644" y2="753" transform="translate(-610.5 3918.5)" fill="none" stroke="#779eff" stroke-width="4"/>
      </g>
      <g transform="translate(865.88 -3918.175)">
        <line id="Line_24" data-name="Line 24" x1="644" y2="753" transform="translate(-610.5 3918.5)" fill="none" stroke="#779eff" stroke-width="4"/>
      </g>
      <g transform="translate(880.88 -3918.175)">
        <line id="Line_25" data-name="Line 25" x1="644" y2="753" transform="translate(-610.5 3918.5)" fill="none" stroke="#779eff" stroke-width="4"/>
      </g>
      <g transform="translate(895.88 -3918.175)">
        <line id="Line_26" data-name="Line 26" x1="644" y2="753" transform="translate(-610.5 3918.5)" fill="none" stroke="#779eff" stroke-width="4"/>
      </g>
      <g transform="translate(910.88 -3918.175)">
        <line id="Line_27" data-name="Line 27" x1="644" y2="753" transform="translate(-610.5 3918.5)" fill="none" stroke="#779eff" stroke-width="4"/>
      </g>
      <g transform="translate(925.88 -3918.175)">
        <line id="Line_28" data-name="Line 28" x1="644" y2="753" transform="translate(-610.5 3918.5)" fill="none" stroke="#779eff" stroke-width="4"/>
      </g>
      <g transform="translate(940.88 -3918.175)">
        <line id="Line_29" data-name="Line 29" x1="644" y2="753" transform="translate(-610.5 3918.5)" fill="none" stroke="#779eff" stroke-width="4"/>
      </g>
      <g transform="translate(955.88 -3918.175)">
        <line id="Line_30" data-name="Line 30" x1="644" y2="753" transform="translate(-610.5 3918.5)" fill="none" stroke="#779eff" stroke-width="4"/>
      </g>
      <g transform="translate(970.88 -3918.175)">
        <line id="Line_31" data-name="Line 31" x1="644" y2="753" transform="translate(-610.5 3918.5)" fill="none" stroke="#779eff" stroke-width="4"/>
      </g>
      <g transform="translate(985.88 -3918.175)">
        <line id="Line_32" data-name="Line 32" x1="644" y2="753" transform="translate(-610.5 3918.5)" fill="none" stroke="#779eff" stroke-width="4"/>
      </g>
      <g transform="translate(1000.88 -3918.175)">
        <line id="Line_33" data-name="Line 33" x1="644" y2="753" transform="translate(-610.5 3918.5)" fill="none" stroke="#779eff" stroke-width="4"/>
      </g>
      <g transform="translate(1015.88 -3918.175)">
        <line id="Line_34" data-name="Line 34" x1="644" y2="753" transform="translate(-610.5 3918.5)" fill="none" stroke="#779eff" stroke-width="4"/>
      </g>
      <g transform="translate(1030.88 -3918.175)">
        <line id="Line_35" data-name="Line 35" x1="644" y2="753" transform="translate(-610.5 3918.5)" fill="none" stroke="#779eff" stroke-width="4"/>
      </g>
      <g transform="translate(1045.88 -3918.175)">
        <line id="Line_36" data-name="Line 36" x1="644" y2="753" transform="translate(-610.5 3918.5)" fill="none" stroke="#779eff" stroke-width="4"/>
      </g>
      <g transform="translate(1060.88 -3918.175)">
        <line id="Line_37" data-name="Line 37" x1="644" y2="753" transform="translate(-610.5 3918.5)" fill="none" stroke="#779eff" stroke-width="4"/>
      </g>
      <g transform="translate(1075.88 -3918.175)">
        <line id="Line_38" data-name="Line 38" x1="644" y2="753" transform="translate(-610.5 3918.5)" fill="none" stroke="#779eff" stroke-width="4"/>
      </g>
      <g transform="translate(1090.88 -3918.175)">
        <line id="Line_39" data-name="Line 39" x1="644" y2="753" transform="translate(-610.5 3918.5)" fill="none" stroke="#779eff" stroke-width="4"/>
      </g>
      <g transform="translate(1105.88 -3918.175)">
        <line id="Line_40" data-name="Line 40" x1="644" y2="753" transform="translate(-610.5 3918.5)" fill="none" stroke="#779eff" stroke-width="4"/>
      </g>
      <g transform="translate(1120.88 -3918.175)">
        <line id="Line_41" data-name="Line 41" x1="644" y2="753" transform="translate(-610.5 3918.5)" fill="none" stroke="#779eff" stroke-width="4"/>
      </g>
      <g transform="translate(1135.88 -3918.175)">
        <line id="Line_42" data-name="Line 42" x1="644" y2="753" transform="translate(-610.5 3918.5)" fill="none" stroke="#779eff" stroke-width="4"/>
      </g>
      <g transform="translate(1150.88 -3918.175)">
        <line id="Line_43" data-name="Line 43" x1="644" y2="753" transform="translate(-610.5 3918.5)" fill="none" stroke="#779eff" stroke-width="4"/>
      </g>
      <g transform="translate(1165.88 -3918.175)">
        <line id="Line_44" data-name="Line 44" x1="644" y2="753" transform="translate(-610.5 3918.5)" fill="none" stroke="#779eff" stroke-width="4"/>
      </g>
      <g transform="translate(1180.88 -3918.175)">
        <line id="Line_45" data-name="Line 45" x1="644" y2="753" transform="translate(-610.5 3918.5)" fill="none" stroke="#779eff" stroke-width="4"/>
      </g>
      <g transform="translate(1195.88 -3918.175)">
        <line id="Line_46" data-name="Line 46" x1="644" y2="753" transform="translate(-610.5 3918.5)" fill="none" stroke="#779eff" stroke-width="4"/>
      </g>
      <g transform="translate(1210.88 -3918.175)">
        <line id="Line_47" data-name="Line 47" x1="644" y2="753" transform="translate(-610.5 3918.5)" fill="none" stroke="#779eff" stroke-width="4"/>
      </g>
      <g transform="translate(1225.88 -3918.175)">
        <line id="Line_48" data-name="Line 48" x1="644" y2="753" transform="translate(-610.5 3918.5)" fill="none" stroke="#779eff" stroke-width="4"/>
      </g>
      <g transform="translate(1240.88 -3918.175)">
        <line id="Line_49" data-name="Line 49" x1="644" y2="753" transform="translate(-610.5 3918.5)" fill="none" stroke="#779eff" stroke-width="4"/>
      </g>
      <g transform="translate(1255.88 -3918.175)">
        <line id="Line_50" data-name="Line 50" x1="644" y2="753" transform="translate(-610.5 3918.5)" fill="none" stroke="#779eff" stroke-width="4"/>
      </g>
      <g transform="translate(1270.88 -3918.175)">
        <line id="Line_51" data-name="Line 51" x1="644" y2="753" transform="translate(-610.5 3918.5)" fill="none" stroke="#779eff" stroke-width="4"/>
      </g>
      <g transform="translate(1285.88 -3918.175)">
        <line id="Line_52" data-name="Line 52" x1="644" y2="753" transform="translate(-610.5 3918.5)" fill="none" stroke="#779eff" stroke-width="4"/>
      </g>
      <g transform="translate(1300.88 -3918.175)">
        <line id="Line_53" data-name="Line 53" x1="644" y2="753" transform="translate(-610.5 3918.5)" fill="none" stroke="#779eff" stroke-width="4"/>
      </g>
      <g transform="translate(1315.88 -3918.175)">
        <line id="Line_54" data-name="Line 54" x1="644" y2="753" transform="translate(-610.5 3918.5)" fill="none" stroke="#779eff" stroke-width="4"/>
      </g>
      <g transform="translate(1330.88 -3918.175)">
        <line id="Line_55" data-name="Line 55" x1="644" y2="753" transform="translate(-610.5 3918.5)" fill="none" stroke="#779eff" stroke-width="4"/>
      </g>
      <g transform="translate(1345.88 -3918.175)">
        <line id="Line_56" data-name="Line 56" x1="644" y2="753" transform="translate(-610.5 3918.5)" fill="none" stroke="#779eff" stroke-width="4"/>
      </g>
      <g transform="translate(1360.88 -3918.175)">
        <line id="Line_57" data-name="Line 57" x1="644" y2="753" transform="translate(-610.5 3918.5)" fill="none" stroke="#779eff" stroke-width="4"/>
      </g>
      <g transform="translate(1375.88 -3918.175)">
        <line id="Line_58" data-name="Line 58" x1="644" y2="753" transform="translate(-610.5 3918.5)" fill="none" stroke="#779eff" stroke-width="4"/>
      </g>
      <g transform="translate(1390.88 -3918.175)">
        <line id="Line_59" data-name="Line 59" x1="644" y2="753" transform="translate(-610.5 3918.5)" fill="none" stroke="#779eff" stroke-width="4"/>
      </g>
      <g transform="translate(1405.88 -3918.175)">
        <line id="Line_60" data-name="Line 60" x1="644" y2="753" transform="translate(-610.5 3918.5)" fill="none" stroke="#779eff" stroke-width="4"/>
      </g>
      <g transform="translate(1420.88 -3918.175)">
        <line id="Line_61" data-name="Line 61" x1="644" y2="753" transform="translate(-610.5 3918.5)" fill="none" stroke="#779eff" stroke-width="4"/>
      </g>
      <g transform="translate(1435.88 -3918.175)">
        <line id="Line_62" data-name="Line 62" x1="644" y2="753" transform="translate(-610.5 3918.5)" fill="none" stroke="#779eff" stroke-width="4"/>
      </g>
      <g transform="translate(1450.88 -3918.175)">
        <line id="Line_63" data-name="Line 63" x1="644" y2="753" transform="translate(-610.5 3918.5)" fill="none" stroke="#779eff" stroke-width="4"/>
      </g>
      <g transform="translate(1465.88 -3918.175)">
        <line id="Line_64" data-name="Line 64" x1="644" y2="753" transform="translate(-610.5 3918.5)" fill="none" stroke="#779eff" stroke-width="4"/>
      </g>
      <g transform="translate(1480.88 -3918.175)">
        <line id="Line_65" data-name="Line 65" x1="644" y2="753" transform="translate(-610.5 3918.5)" fill="none" stroke="#779eff" stroke-width="4"/>
      </g>
      <g transform="translate(1495.88 -3918.175)">
        <line id="Line_66" data-name="Line 66" x1="644" y2="753" transform="translate(-610.5 3918.5)" fill="none" stroke="#779eff" stroke-width="4"/>
      </g>
      <g transform="translate(1510.88 -3918.175)">
        <line id="Line_67" data-name="Line 67" x1="644" y2="753" transform="translate(-610.5 3918.5)" fill="none" stroke="#779eff" stroke-width="4"/>
      </g>
      <g transform="translate(1525.88 -3918.175)">
        <line id="Line_68" data-name="Line 68" x1="644" y2="753" transform="translate(-610.5 3918.5)" fill="none" stroke="#779eff" stroke-width="4"/>
      </g>
      <g transform="translate(1540.88 -3918.175)">
        <line id="Line_69" data-name="Line 69" x1="644" y2="753" transform="translate(-610.5 3918.5)" fill="none" stroke="#779eff" stroke-width="4"/>
      </g>
      <g transform="translate(1555.88 -3918.175)">
        <line id="Line_70" data-name="Line 70" x1="644" y2="753" transform="translate(-610.5 3918.5)" fill="none" stroke="#779eff" stroke-width="4"/>
      </g>
      <g transform="translate(1570.88 -3918.175)">
        <line id="Line_71" data-name="Line 71" x1="644" y2="753" transform="translate(-610.5 3918.5)" fill="none" stroke="#779eff" stroke-width="4"/>
      </g>
      <g transform="translate(1585.88 -3918.175)">
        <line id="Line_72" data-name="Line 72" x1="644" y2="753" transform="translate(-610.5 3918.5)" fill="none" stroke="#779eff" stroke-width="4"/>
      </g>
      <g transform="translate(1600.88 -3918.175)">
        <line id="Line_73" data-name="Line 73" x1="644" y2="753" transform="translate(-610.5 3918.5)" fill="none" stroke="#779eff" stroke-width="4"/>
      </g>
      <g transform="translate(1615.88 -3918.175)">
        <line id="Line_74" data-name="Line 74" x1="644" y2="753" transform="translate(-610.5 3918.5)" fill="none" stroke="#779eff" stroke-width="4"/>
      </g>
      <g transform="translate(1630.88 -3918.175)">
        <line id="Line_75" data-name="Line 75" x1="644" y2="753" transform="translate(-610.5 3918.5)" fill="none" stroke="#779eff" stroke-width="4"/>
      </g>
      <g transform="translate(1645.88 -3918.175)">
        <line id="Line_76" data-name="Line 76" x1="644" y2="753" transform="translate(-610.5 3918.5)" fill="none" stroke="#779eff" stroke-width="4"/>
      </g>
      <g transform="translate(1660.88 -3918.175)">
        <line id="Line_77" data-name="Line 77" x1="644" y2="753" transform="translate(-610.5 3918.5)" fill="none" stroke="#779eff" stroke-width="4"/>
      </g>
      <g transform="translate(1675.88 -3918.175)">
        <line id="Line_78" data-name="Line 78" x1="644" y2="753" transform="translate(-610.5 3918.5)" fill="none" stroke="#779eff" stroke-width="4"/>
      </g>
      <g transform="translate(1690.88 -3918.175)">
        <line id="Line_79" data-name="Line 79" x1="644" y2="753" transform="translate(-610.5 3918.5)" fill="none" stroke="#779eff" stroke-width="4"/>
      </g>
      <g transform="translate(1705.88 -3918.175)">
        <line id="Line_80" data-name="Line 80" x1="644" y2="753" transform="translate(-610.5 3918.5)" fill="none" stroke="#779eff" stroke-width="4"/>
      </g>
      <g transform="translate(1720.88 -3918.175)">
        <line id="Line_81" data-name="Line 81" x1="644" y2="753" transform="translate(-610.5 3918.5)" fill="none" stroke="#779eff" stroke-width="4"/>
      </g>
      <g transform="translate(1735.88 -3918.175)">
        <line id="Line_82" data-name="Line 82" x1="644" y2="753" transform="translate(-610.5 3918.5)" fill="none" stroke="#779eff" stroke-width="4"/>
      </g>
      <g transform="translate(1750.88 -3918.175)">
        <line id="Line_83" data-name="Line 83" x1="644" y2="753" transform="translate(-610.5 3918.5)" fill="none" stroke="#779eff" stroke-width="4"/>
      </g>
      <g transform="translate(1765.88 -3918.175)">
        <line id="Line_84" data-name="Line 84" x1="644" y2="753" transform="translate(-610.5 3918.5)" fill="none" stroke="#779eff" stroke-width="4"/>
      </g>
      <g transform="translate(1780.88 -3918.175)">
        <line id="Line_85" data-name="Line 85" x1="644" y2="753" transform="translate(-610.5 3918.5)" fill="none" stroke="#779eff" stroke-width="4"/>
      </g>
      <g transform="translate(1795.88 -3918.175)">
        <line id="Line_86" data-name="Line 86" x1="644" y2="753" transform="translate(-610.5 3918.5)" fill="none" stroke="#779eff" stroke-width="4"/>
      </g>
      <g transform="translate(1810.88 -3918.175)">
        <line id="Line_87" data-name="Line 87" x1="644" y2="753" transform="translate(-610.5 3918.5)" fill="none" stroke="#779eff" stroke-width="4"/>
      </g>
      <g transform="translate(1825.88 -3918.175)">
        <line id="Line_88" data-name="Line 88" x1="644" y2="753" transform="translate(-610.5 3918.5)" fill="none" stroke="#779eff" stroke-width="4"/>
      </g>
      <g transform="translate(1840.88 -3918.175)">
        <line id="Line_89" data-name="Line 89" x1="644" y2="753" transform="translate(-610.5 3918.5)" fill="none" stroke="#779eff" stroke-width="4"/>
      </g>
      <g transform="translate(1855.88 -3918.175)">
        <line id="Line_90" data-name="Line 90" x1="644" y2="753" transform="translate(-610.5 3918.5)" fill="none" stroke="#779eff" stroke-width="4"/>
      </g>
      <g transform="translate(1870.88 -3918.175)">
        <line id="Line_91" data-name="Line 91" x1="644" y2="753" transform="translate(-610.5 3918.5)" fill="none" stroke="#779eff" stroke-width="4"/>
      </g>
      <g transform="translate(1885.88 -3918.175)">
        <line id="Line_92" data-name="Line 92" x1="644" y2="753" transform="translate(-610.5 3918.5)" fill="none" stroke="#779eff" stroke-width="4"/>
      </g>
      <g transform="translate(1900.88 -3918.175)">
        <line id="Line_93" data-name="Line 93" x1="644" y2="753" transform="translate(-610.5 3918.5)" fill="none" stroke="#779eff" stroke-width="4"/>
      </g>
      <g transform="translate(1915.88 -3918.175)">
        <line id="Line_94" data-name="Line 94" x1="644" y2="753" transform="translate(-610.5 3918.5)" fill="none" stroke="#779eff" stroke-width="4"/>
      </g>
      <g transform="translate(1930.88 -3918.175)">
        <line id="Line_95" data-name="Line 95" x1="644" y2="753" transform="translate(-610.5 3918.5)" fill="none" stroke="#779eff" stroke-width="4"/>
      </g>
      <g transform="translate(1945.88 -3918.175)">
        <line id="Line_96" data-name="Line 96" x1="644" y2="753" transform="translate(-610.5 3918.5)" fill="none" stroke="#779eff" stroke-width="4"/>
      </g>
      <g transform="translate(1960.88 -3918.175)">
        <line id="Line_97" data-name="Line 97" x1="644" y2="753" transform="translate(-610.5 3918.5)" fill="none" stroke="#779eff" stroke-width="4"/>
      </g>
      <g transform="translate(1975.88 -3918.175)">
        <line id="Line_98" data-name="Line 98" x1="644" y2="753" transform="translate(-610.5 3918.5)" fill="none" stroke="#779eff" stroke-width="4"/>
      </g>
      <g transform="translate(1990.88 -3918.175)">
        <line id="Line_99" data-name="Line 99" x1="644" y2="753" transform="translate(-610.5 3918.5)" fill="none" stroke="#779eff" stroke-width="4"/>
      </g>
      <g transform="translate(2005.88 -3918.175)">
        <line id="Line_100" data-name="Line 100" x1="644" y2="753" transform="translate(-610.5 3918.5)" fill="none" stroke="#779eff" stroke-width="4"/>
      </g>
      <g transform="translate(2020.88 -3918.175)">
        <line id="Line_101" data-name="Line 101" x1="644" y2="753" transform="translate(-610.5 3918.5)" fill="none" stroke="#779eff" stroke-width="4"/>
      </g>
      <g transform="translate(2035.88 -3918.175)">
        <line id="Line_102" data-name="Line 102" x1="644" y2="753" transform="translate(-610.5 3918.5)" fill="none" stroke="#779eff" stroke-width="4"/>
      </g>
      <g transform="translate(2050.88 -3918.175)">
        <line id="Line_103" data-name="Line 103" x1="644" y2="753" transform="translate(-610.5 3918.5)" fill="none" stroke="#779eff" stroke-width="4"/>
      </g>
      <g transform="translate(2065.88 -3918.175)">
        <line id="Line_104" data-name="Line 104" x1="644" y2="753" transform="translate(-610.5 3918.5)" fill="none" stroke="#779eff" stroke-width="4"/>
      </g>
      <g transform="translate(2080.88 -3918.175)">
        <line id="Line_105" data-name="Line 105" x1="644" y2="753" transform="translate(-610.5 3918.5)" fill="none" stroke="#779eff" stroke-width="4"/>
      </g>
      <g transform="translate(2095.88 -3918.175)">
        <line id="Line_106" data-name="Line 106" x1="644" y2="753" transform="translate(-610.5 3918.5)" fill="none" stroke="#779eff" stroke-width="4"/>
      </g>
      <g transform="translate(2110.88 -3918.175)">
        <line id="Line_107" data-name="Line 107" x1="644" y2="753" transform="translate(-610.5 3918.5)" fill="none" stroke="#779eff" stroke-width="4"/>
      </g>
      <g transform="translate(2125.88 -3918.175)">
        <line id="Line_108" data-name="Line 108" x1="644" y2="753" transform="translate(-610.5 3918.5)" fill="none" stroke="#779eff" stroke-width="4"/>
      </g>
      <g transform="translate(2140.88 -3918.175)">
        <line id="Line_109" data-name="Line 109" x1="644" y2="753" transform="translate(-610.5 3918.5)" fill="none" stroke="#779eff" stroke-width="4"/>
      </g>
      <g transform="translate(2155.88 -3918.175)">
        <line id="Line_110" data-name="Line 110" x1="644" y2="753" transform="translate(-610.5 3918.5)" fill="none" stroke="#779eff" stroke-width="4"/>
      </g>
      <g transform="translate(2170.88 -3918.175)">
        <line id="Line_111" data-name="Line 111" x1="644" y2="753" transform="translate(-610.5 3918.5)" fill="none" stroke="#779eff" stroke-width="4"/>
      </g>
      <g transform="translate(2185.88 -3918.175)">
        <line id="Line_112" data-name="Line 112" x1="644" y2="753" transform="translate(-610.5 3918.5)" fill="none" stroke="#779eff" stroke-width="4"/>
      </g>
      <g transform="translate(2200.88 -3918.175)">
        <line id="Line_113" data-name="Line 113" x1="644" y2="753" transform="translate(-610.5 3918.5)" fill="none" stroke="#779eff" stroke-width="4"/>
      </g>
      <g transform="translate(2215.88 -3918.175)">
        <line id="Line_114" data-name="Line 114" x1="644" y2="753" transform="translate(-610.5 3918.5)" fill="none" stroke="#779eff" stroke-width="4"/>
      </g>
      <g transform="translate(2230.88 -3918.175)">
        <line id="Line_115" data-name="Line 115" x1="644" y2="753" transform="translate(-610.5 3918.5)" fill="none" stroke="#779eff" stroke-width="4"/>
      </g>
      <g transform="translate(2245.88 -3918.175)">
        <line id="Line_116" data-name="Line 116" x1="644" y2="753" transform="translate(-610.5 3918.5)" fill="none" stroke="#779eff" stroke-width="4"/>
      </g>
      <g transform="translate(2260.88 -3918.175)">
        <line id="Line_117" data-name="Line 117" x1="644" y2="753" transform="translate(-610.5 3918.5)" fill="none" stroke="#779eff" stroke-width="4"/>
      </g>
      <g transform="translate(2275.88 -3918.175)">
        <line id="Line_118" data-name="Line 118" x1="644" y2="753" transform="translate(-610.5 3918.5)" fill="none" stroke="#779eff" stroke-width="4"/>
      </g>
      <g transform="translate(2290.88 -3918.175)">
        <line id="Line_119" data-name="Line 119" x1="644" y2="753" transform="translate(-610.5 3918.5)" fill="none" stroke="#779eff" stroke-width="4"/>
      </g>
      <g transform="translate(2305.88 -3918.175)">
        <line id="Line_120" data-name="Line 120" x1="644" y2="753" transform="translate(-610.5 3918.5)" fill="none" stroke="#779eff" stroke-width="4"/>
      </g>
      <g transform="translate(2320.88 -3918.175)">
        <line id="Line_121" data-name="Line 121" x1="644" y2="753" transform="translate(-610.5 3918.5)" fill="none" stroke="#779eff" stroke-width="4"/>
      </g>
      <g transform="translate(2335.88 -3918.175)">
        <line id="Line_122" data-name="Line 122" x1="644" y2="753" transform="translate(-610.5 3918.5)" fill="none" stroke="#779eff" stroke-width="4"/>
      </g>
      <g transform="translate(2350.88 -3918.175)">
        <line id="Line_123" data-name="Line 123" x1="644" y2="753" transform="translate(-610.5 3918.5)" fill="none" stroke="#779eff" stroke-width="4"/>
      </g>
      <g transform="translate(2365.88 -3918.175)">
        <line id="Line_124" data-name="Line 124" x1="644" y2="753" transform="translate(-610.5 3918.5)" fill="none" stroke="#779eff" stroke-width="4"/>
      </g>
      <g transform="translate(2380.88 -3918.175)">
        <line id="Line_125" data-name="Line 125" x1="644" y2="753" transform="translate(-610.5 3918.5)" fill="none" stroke="#779eff" stroke-width="4"/>
      </g>
      <g transform="translate(2395.88 -3918.175)">
        <line id="Line_126" data-name="Line 126" x1="644" y2="753" transform="translate(-610.5 3918.5)" fill="none" stroke="#779eff" stroke-width="4"/>
      </g>
      <g transform="translate(2410.88 -3918.175)">
        <line id="Line_127" data-name="Line 127" x1="644" y2="753" transform="translate(-610.5 3918.5)" fill="none" stroke="#779eff" stroke-width="4"/>
      </g>
      <g transform="translate(2425.88 -3918.175)">
        <line id="Line_128" data-name="Line 128" x1="644" y2="753" transform="translate(-610.5 3918.5)" fill="none" stroke="#779eff" stroke-width="4"/>
      </g>
      <g transform="translate(2440.88 -3918.175)">
        <line id="Line_129" data-name="Line 129" x1="644" y2="753" transform="translate(-610.5 3918.5)" fill="none" stroke="#779eff" stroke-width="4"/>
      </g>
      <g transform="translate(2455.88 -3918.175)">
        <line id="Line_130" data-name="Line 130" x1="644" y2="753" transform="translate(-610.5 3918.5)" fill="none" stroke="#779eff" stroke-width="4"/>
      </g>
      <g transform="translate(2470.88 -3918.175)">
        <line id="Line_131" data-name="Line 131" x1="644" y2="753" transform="translate(-610.5 3918.5)" fill="none" stroke="#779eff" stroke-width="4"/>
      </g>
      <g transform="translate(2485.88 -3918.175)">
        <line id="Line_132" data-name="Line 132" x1="644" y2="753" transform="translate(-610.5 3918.5)" fill="none" stroke="#779eff" stroke-width="4"/>
      </g>
      <g transform="translate(2500.88 -3918.175)">
        <line id="Line_133" data-name="Line 133" x1="644" y2="753" transform="translate(-610.5 3918.5)" fill="none" stroke="#779eff" stroke-width="4"/>
      </g>
      <g transform="translate(2515.88 -3918.175)">
        <line id="Line_134" data-name="Line 134" x1="644" y2="753" transform="translate(-610.5 3918.5)" fill="none" stroke="#779eff" stroke-width="4"/>
      </g>
      <g transform="translate(2530.88 -3918.175)">
        <line id="Line_135" data-name="Line 135" x1="644" y2="753" transform="translate(-610.5 3918.5)" fill="none" stroke="#779eff" stroke-width="4"/>
      </g>
      <g transform="translate(2545.88 -3918.175)">
        <line id="Line_136" data-name="Line 136" x1="644" y2="753" transform="translate(-610.5 3918.5)" fill="none" stroke="#779eff" stroke-width="4"/>
      </g>
      <g transform="translate(2560.88 -3918.175)">
        <line id="Line_137" data-name="Line 137" x1="644" y2="753" transform="translate(-610.5 3918.5)" fill="none" stroke="#779eff" stroke-width="4"/>
      </g>
      <g transform="translate(2575.88 -3918.175)">
        <line id="Line_138" data-name="Line 138" x1="644" y2="753" transform="translate(-610.5 3918.5)" fill="none" stroke="#779eff" stroke-width="4"/>
      </g>
      <g transform="translate(2590.88 -3918.175)">
        <line id="Line_139" data-name="Line 139" x1="644" y2="753" transform="translate(-610.5 3918.5)" fill="none" stroke="#779eff" stroke-width="4"/>
      </g>
      <g transform="translate(2605.88 -3918.175)">
        <line id="Line_140" data-name="Line 140" x1="644" y2="753" transform="translate(-610.5 3918.5)" fill="none" stroke="#779eff" stroke-width="4"/>
      </g>
      <g transform="translate(2620.88 -3918.175)">
        <line id="Line_141" data-name="Line 141" x1="644" y2="753" transform="translate(-610.5 3918.5)" fill="none" stroke="#779eff" stroke-width="4"/>
      </g>
      <g transform="translate(2635.88 -3918.175)">
        <line id="Line_142" data-name="Line 142" x1="644" y2="753" transform="translate(-610.5 3918.5)" fill="none" stroke="#779eff" stroke-width="4"/>
      </g>
      <g transform="translate(2650.88 -3918.175)">
        <line id="Line_143" data-name="Line 143" x1="644" y2="753" transform="translate(-610.5 3918.5)" fill="none" stroke="#779eff" stroke-width="4"/>
      </g>
      <g transform="translate(2665.88 -3918.175)">
        <line id="Line_144" data-name="Line 144" x1="644" y2="753" transform="translate(-610.5 3918.5)" fill="none" stroke="#779eff" stroke-width="4"/>
      </g>
      <g transform="translate(2680.88 -3918.175)">
        <line id="Line_145" data-name="Line 145" x1="644" y2="753" transform="translate(-610.5 3918.5)" fill="none" stroke="#779eff" stroke-width="4"/>
      </g>
      <g transform="translate(2695.88 -3918.175)">
        <line id="Line_146" data-name="Line 146" x1="644" y2="753" transform="translate(-610.5 3918.5)" fill="none" stroke="#779eff" stroke-width="4"/>
      </g>
      <g transform="translate(2710.88 -3918.175)">
        <line id="Line_147" data-name="Line 147" x1="644" y2="753" transform="translate(-610.5 3918.5)" fill="none" stroke="#779eff" stroke-width="4"/>
      </g>
      <g transform="translate(2725.88 -3918.175)">
        <line id="Line_148" data-name="Line 148" x1="644" y2="753" transform="translate(-610.5 3918.5)" fill="none" stroke="#779eff" stroke-width="4"/>
      </g>
      <g transform="translate(2740.88 -3918.175)">
        <line id="Line_149" data-name="Line 149" x1="644" y2="753" transform="translate(-610.5 3918.5)" fill="none" stroke="#779eff" stroke-width="4"/>
      </g>
      <g transform="translate(2755.88 -3918.175)">
        <line id="Line_150" data-name="Line 150" x1="644" y2="753" transform="translate(-610.5 3918.5)" fill="none" stroke="#779eff" stroke-width="4"/>
      </g>
      <g transform="translate(2770.88 -3918.175)">
        <line id="Line_151" data-name="Line 151" x1="644" y2="753" transform="translate(-610.5 3918.5)" fill="none" stroke="#779eff" stroke-width="4"/>
      </g>
      <g transform="translate(2785.88 -3918.175)">
        <line id="Line_152" data-name="Line 152" x1="644" y2="753" transform="translate(-610.5 3918.5)" fill="none" stroke="#779eff" stroke-width="4"/>
      </g>
      <g transform="translate(2800.88 -3918.175)">
        <line id="Line_153" data-name="Line 153" x1="644" y2="753" transform="translate(-610.5 3918.5)" fill="none" stroke="#779eff" stroke-width="4"/>
      </g>
      <g transform="translate(2815.88 -3918.175)">
        <line id="Line_154" data-name="Line 154" x1="644" y2="753" transform="translate(-610.5 3918.5)" fill="none" stroke="#779eff" stroke-width="4"/>
      </g>
      <g transform="translate(2830.88 -3918.175)">
        <line id="Line_155" data-name="Line 155" x1="644" y2="753" transform="translate(-610.5 3918.5)" fill="none" stroke="#779eff" stroke-width="4"/>
      </g>
      <g transform="translate(2845.88 -3918.175)">
        <line id="Line_156" data-name="Line 156" x1="644" y2="753" transform="translate(-610.5 3918.5)" fill="none" stroke="#779eff" stroke-width="4"/>
      </g>
      <g transform="translate(2860.88 -3918.175)">
        <line id="Line_157" data-name="Line 157" x1="644" y2="753" transform="translate(-610.5 3918.5)" fill="none" stroke="#779eff" stroke-width="4"/>
      </g>
    </g>
  </g>
</svg>
