<svg xmlns="http://www.w3.org/2000/svg" width="678.864" height="342.058" viewBox="0 0 678.864 342.058">
  <g id="Group_468" data-name="Group 468" transform="translate(1.257 0.991)">
    <path id="Path_1100" data-name="Path 1100" stroke="#fff" d="M97.238,154.342C68.179,139.813,27.491,125.279,7.151,96.221c-17.437-23.252,0-46.5,20.34-61.028C56.558,14.849,91.431.32,126.3.32c34.873-2.908,66.834,14.529,95.9,31.966,34.873,23.247,69.746,49.4,110.426,61.028C361.7,99.124,396.572,96.221,414,67.158c11.626-20.344,5.811-46.5-20.344-58.121C382.038,3.223,367.5,3.223,355.883,6.13c-8.718,2.908-26.155,5.811-26.155,17.437-2.9,14.529,23.252,23.247,31.97,26.155,29.058,11.626,61.028,14.529,90.09,17.437C504.1,70.066,553.5,61.348,600,38.1" fill="none" transform="translate(0 190.189) rotate(-14)" stroke-miterlimit="10" stroke-width="2" stroke-dasharray="6" fill-rule="evenodd" opacity="0.3"/>
    <g id="Reputation_Management_1_" transform="translate(536.623 0)">
      <g id="Group_365" data-name="Group 365">
        <path id="Path_1077" data-name="Path 1077" d="M275.527,209.45l90.224-87.18-83.515,55.2Z" transform="translate(-228.619 -119.096)" fill="#4f97cd" stroke="#1d1d1b" stroke-linecap="round" stroke-linejoin="round" stroke-miterlimit="10" stroke-width="2"/>
        <path id="Path_1078" data-name="Path 1078" d="M359.155,121.235h.006a.046.046,0,0,0-.018-.006.075.075,0,0,1-.018-.012h-.012a1039.239,1039.239,0,0,0-84.54,63.923l44.652,32.049a1.167,1.167,0,0,0,1.584-.43S360.228,121.9,359.155,121.235Z" transform="translate(-219.176 -121.208)" fill="#4f97cd" stroke="#1d1d1b" stroke-linecap="round" stroke-linejoin="round" stroke-miterlimit="10" stroke-width="2"/>
        <path id="Path_1079" data-name="Path 1079" d="M414.557,121.328a.187.187,0,0,1,.006-.069v-.018a.047.047,0,0,0-.018-.006.073.073,0,0,1-.018-.012h-.012c-1.046-.688-139.075,40.123-139.075,40.123-.9.258-1.139.757-.5,1.115l32.265,8.083,4,2.272Z" transform="translate(-274.578 -121.214)" fill="#4f97cd" stroke="#1d1d1b" stroke-linecap="round" stroke-linejoin="round" stroke-miterlimit="10" stroke-width="2"/>
        <path id="Path_1080" data-name="Path 1080" d="M274.594,170.445l14.212,41.118,8.4-26.211,84.633-64.134Z" transform="translate(-241.898 -121.208)" fill="#4f97cd" stroke="#1d1d1b" stroke-linecap="round" stroke-linejoin="round" stroke-miterlimit="10" stroke-width="2"/>
      </g>
    </g>
  </g>
</svg>
